<?xml version="1.0" encoding="UTF-8" standalone="no"?>
<svg
   width="64"
   height="64"
   version="1.0"
   xmlns="http://www.w3.org/2000/svg">
  <g transform="translate(-269.51781,-265.60124)">
    <g transform="matrix(1.3473684,0,0,1.3473684,-632.88236,-513.34366)">
      <g transform="matrix(0.25,0,0,0.25,502.3126,469.21738)">
        <g transform="matrix(0.75294128,0,0,0.75294128,1449.619,448.74583)" style="fill:#ffffff">
          
          <path
             inkscape:connector-curvature="0"
             d="m -909.59136,203.37231 c -52.25092,0 -94.62894,-42.37799 -94.62894,-94.62892 0,-52.250919 42.37802,-94.628869 94.62894,-94.628869 52.25092,0 94.62891,42.37795 94.62891,94.628869 0,52.25093 -42.37799,94.62892 -94.62891,94.62892 z m 0,-165.600599 c -39.19213,0 -70.97168,31.7007 -70.97168,70.971679 0,39.19214 31.7007,70.97169 70.97168,70.97169 39.19214,0 70.97168,-31.70067 70.97168,-70.97169 0,-39.192129 -31.70069,-70.971679 -70.97168,-70.971679"
             style="color:#353535;fill:#ffffff;fill-opacity:1;fill-rule:evenodd;stroke-width:15.77148151"
             id="path3044-5" />

          <path
             d="m -921.5,145 h 22 v -18 c 0,-15 -25,-15 -25,-30 0,-10 10,-15 20,-15 15,0 25,10 25,25 h -20 c 0,-8 -5,-10 -10,-10 -5,0 -8,2 -8,5 0,10 25,10 25,25 v 18 h -29 z m 0,10 h 22 v 20 h -22 z"
             style="fill:#ffffff;fill-opacity:1;stroke:none"
             id="question-mark" />

        </g>
      </g>
    </g>
  </g>
</svg>
