<?xml version="1.0" encoding="UTF-8" standalone="no"?>
<!-- Created with Inkscape (http://www.inkscape.org/) -->

<svg
   xmlns:dc="http://purl.org/dc/elements/1.1/"
   xmlns:cc="http://creativecommons.org/ns#"
   xmlns:rdf="http://www.w3.org/1999/02/22-rdf-syntax-ns#"
   xmlns:svg="http://www.w3.org/2000/svg"
   xmlns="http://www.w3.org/2000/svg"
   xmlns:sodipodi="http://sodipodi.sourceforge.net/DTD/sodipodi-0.dtd"
   xmlns:inkscape="http://www.inkscape.org/namespaces/inkscape"
   id="svg2"
   version="1.1"
   inkscape:version="0.91 r"
   width="48"
   height="48"
   viewBox="0 0 48 48"
   sodipodi:docname="equator.svg">
  <metadata
     id="metadata8">
    <rdf:RDF>
      <cc:Work
         rdf:about="">
        <dc:format>image/svg+xml</dc:format>
        <dc:type
           rdf:resource="http://purl.org/dc/dcmitype/StillImage" />
        <dc:title></dc:title>
      </cc:Work>
    </rdf:RDF>
  </metadata>
  <defs
     id="defs6">
    <clipPath
       clipPathUnits="userSpaceOnUse"
       id="clipPath4211">
      <circle
         r="150.52242"
         cy="211.52541"
         cx="-290.84744"
         id="circle4213"
         style="opacity:1;fill:#1f81c2;fill-opacity:1;stroke:#ffffff;stroke-width:0.17210896;stroke-linejoin:round;stroke-miterlimit:4;stroke-dasharray:none;stroke-opacity:1" />
    </clipPath>
  </defs>
  <sodipodi:namedview
     pagecolor="#ffffff"
     bordercolor="#666666"
     borderopacity="1"
     objecttolerance="10"
     gridtolerance="10"
     guidetolerance="10"
     inkscape:pageopacity="0"
     inkscape:pageshadow="2"
     inkscape:window-width="1366"
     inkscape:window-height="699"
     id="namedview4"
     showgrid="false"
     inkscape:zoom="2.7812867"
     inkscape:cx="-52.633819"
     inkscape:cy="18.478194"
     inkscape:window-x="0"
     inkscape:window-y="0"
     inkscape:window-maximized="1"
     inkscape:current-layer="svg2" />
  <g
     id="g4191"
     clip-path="url(#clipPath4211)"
     transform="matrix(0.14420798,0,0,0.14420798,65.942522,-6.4365311)">
    <circle
       r="150.52242"
       cy="210.50847"
       cx="-289.83051"
       id="path4179"
       style="opacity:1;fill:#1f81c2;fill-opacity:1;stroke:#ffffff;stroke-width:0.17210896;stroke-linejoin:round;stroke-miterlimit:4;stroke-dasharray:none;stroke-opacity:1" />
    <path
       sodipodi:nodetypes="ccsccscccccccsscsccssccccscccccccccccccccccccccccccccccccsccccscccssccccccscccsccsccccccccccccccsccscsccccccccccccccccccccssscscccccccccccscccccscccccccccscccccccccccccccc"
       inkscape:connector-curvature="0"
       id="path4149"
       d="m -369.15254,341.69492 2.0339,-5.08475 c 0,0 1.01694,-1.01695 4.06779,-0.50848 3.05085,0.50848 9.66102,-6.61016 9.66102,-6.61016 l -3.05085,-2.54238 c 0,0 1.52543,0.50848 4.57627,-0.50847 3.05085,-1.01695 8.1356,-7.62712 8.1356,-7.62712 l 5.08474,-7.11864 1.01695,-4.57628 6.61017,-4.57627 4.57627,-2.54237 2.0339,-7.62712 2.54237,-8.13559 c 0,0 -2.0339,-2.0339 0,-4.0678 2.0339,-2.0339 4.4529,-2.09559 4.4529,-5.14644 0,-3.05084 1.88497,-4.15503 1.88497,-4.15503 0,0 3.32315,-5.44429 2.3062,-7.47819 -1.01695,-2.0339 -12.71186,-8.13559 -12.71186,-8.13559 l -5.61878,0.84247 c 0,0 -8.74188,0.89357 -10.77578,-1.64881 -2.0339,-2.54237 -1.40205,-7.83773 -1.91053,-9.87163 -0.50847,-2.0339 -9.15254,-6.10169 -9.15254,-6.10169 l -5.08475,-2.54238 -11.18644,-9.15254 -5.08474,0 c 0,0 -3.05085,-2.0339 -5.08475,-3.05085 -2.0339,-1.01695 -4.57627,-0.50847 -4.57627,-0.50847 l -6.10169,6.10169 -6.1017,2.0339 -5.95277,-0.57016 -1.16587,-4.51458 -1.52543,-4.57628 c 1.34902,-2.97327 -0.0623,-3.97488 -2.0339,-4.57627 l -3.55932,-0.50847 -2.0339,0 0.50848,-4.0678 1.52542,-2.0339 1.01695,-5.59322 -6.61017,0 -1.52542,4.57628 -1.01695,1.01694 -5.08475,0.50848 -4.96665,-2.6913 -1.88498,-6.67186 1.0478,-10.7141 4.9975,-2.30092 3.34871,0.005 3.55932,1.01695 6.10169,-3.05085 6.1017,1.52542 4.06779,2.0339 0.50848,7.11865 2.54237,0.50847 1.88526,-2.37713 -0.53932,-2.69659 -1.07864,-3.23591 -1.43818,-3.23592 c 0,0 -1.07864,-0.89886 -0.35955,-1.25841 0.71909,-0.35954 5.75273,-5.75273 5.75273,-5.75273 l 3.59546,-2.69659 1.79773,-0.89887 -1.25841,-2.87636 c 0,0 -1.07864,-2.51683 -1.07864,-3.23592 0,-0.71909 0.17978,-1.9775 0.17978,-1.9775 l 2.51682,-0.35954 3.59546,-3.05614 c 0,0 1.9775,-0.7191 2.69659,-1.07864 0.71909,-0.35955 3.05614,-2.6966 3.23591,-3.59546 0.17977,-0.89886 0.35955,-1.61796 0.35955,-1.61796 l 5.39318,-2.69659 1.43819,0.89886 1.25841,2.15728 2.51682,-0.53932 2.69659,-0.89886 c 0,0 0.71909,-1.79773 1.61796,-2.33705 0.89886,-0.53932 3.955,-1.61796 3.955,-1.61796 l -2.69659,-1.25841 -2.51682,-0.53932 c 0,0 -1.9775,-1.9775 -2.6966,-1.9775 l -1.61795,0 0.89886,-3.955 c 0,0 -1.43818,0.71909 -3.05614,0 -1.61795,-0.71909 -2.51682,-1.25841 -2.51682,-1.25841 l 0.71909,-0.71909 5.39319,0.89886 1.43818,1.61796 2.51683,-1.61796 2.51682,-0.71909 2.15727,-2.51682 1.79773,-0.17978 1.07864,5.03365 0.71909,4.31455 2.87637,0.17977 3.77523,-1.61796 0.89886,-2.87636 c 0,0 -0.71909,-1.61796 -1.79773,-1.43819 -1.07863,0.17978 -3.23591,0.71909 -3.23591,-0.35954 0,-1.07864 -0.53932,-3.95501 -0.53932,-3.95501 l 1.43818,-1.79773 c 0,0 -3.23591,-4.13477 -4.49432,-4.85386 -1.25841,-0.7191 -3.59546,-0.7191 -3.59546,-0.7191 0,0 -1.07863,-1.25841 -1.61795,-2.15727 -0.53932,-0.89887 -4.85387,-3.77523 -4.85387,-3.77523 l -1.61796,-3.59546 -1.79773,-0.17977 -2.69659,3.955 -1.9775,0.17977 -2.6966,-2.33704 0.17978,-3.05614 -2.87637,-1.25841 -4.67409,-1.07864 -3.59546,-1.25841 -4.31455,-0.35955 -1.25841,1.07864 1.61795,3.41568 -0.89886,1.79773 -1.61796,1.43819 1.9775,2.87636 0.7191,3.95501 -2.6966,0.89886 c 0,0 -0.53932,1.79773 -0.35954,2.51682 0.17977,0.71909 0.35954,4.49433 0.35954,4.49433 0,0 -3.955,0 -4.85387,-0.89887 -0.89886,-0.89886 -1.79773,-3.77523 -1.9775,-4.49432 -0.17977,-0.71909 -1.61795,-3.05614 -2.51682,-2.87637 -0.89886,0.17977 -3.955,-0.71909 -3.955,-0.71909 0,0 -0.89887,-0.89886 -2.15728,-1.43818 -1.25841,-0.53932 -5.57296,-0.71909 -5.57296,-0.71909 l -2.33705,-0.35955 -22.29184,38.4714 -1.61795,27.50526 -4.31455,18.51661 6.29205,0.17977 3.77523,1.43818 5.57296,2.6966 c 0,0 1.25841,1.79773 1.9775,1.61795 0.71909,-0.17977 2.15728,-1.07863 2.87637,-1.25841 l 2.87637,-0.71909 c 0,0 2.87636,3.95501 3.59545,4.13478 0.71909,0.17977 3.41569,1.61796 3.41569,1.61796 l 2.69659,1.9775 4.85387,0.17977 1.61796,1.25841 -1.43819,3.59546 c 0,0 1.07864,2.33705 1.97751,2.51682 0.89886,0.17977 2.51682,1.07864 2.51682,1.07864 0,0 3.23591,1.07863 3.955,1.25841 0.71909,0.17977 4.85387,1.61795 4.85387,1.61795 l 2.33705,1.07864 1.61795,5.21341 -0.89886,3.95501 -6.11228,5.57296 -3.955,4.49432 0.89886,3.23591 c 0,0 1.25841,2.33705 1.43818,3.59546 0.17978,1.25841 4.49433,10.06729 4.49433,10.06729 l 2.33704,5.39318 0.7191,3.41569 c 0,0 3.77523,3.23591 4.49432,3.41568 0.71909,0.17978 3.59546,1.25841 3.59546,1.25841 l 4.49432,4.6741 0.71909,8.26955 -1.43818,3.41569 -1.43819,2.87637 -0.17977,4.49432 0.71909,5.03364 -1.61795,3.955 0,6.11228 -1.07864,2.51682 -1.43818,5.75274 z"
       style="fill:#a3e362;fill-opacity:1;fill-rule:evenodd;stroke:none;stroke-width:1px;stroke-linecap:butt;stroke-linejoin:miter;stroke-opacity:1" />
    <path
       inkscape:connector-curvature="0"
       id="path4151"
       d="m -407.36542,203.32949 2.51682,-2.15727 3.05614,-0.17978 4.49433,0 2.69659,1.43819 3.23591,1.79772 2.51682,1.97751 1.43819,1.9775 -1.79773,1.07864 c 0,0 -1.07864,0.17977 -2.6966,-0.17978 -1.61795,-0.35954 -1.79772,0.89887 -2.69659,-0.71909 -0.89886,-1.61795 -2.51682,-2.69659 -2.51682,-2.69659 0,0 -0.89886,0.17977 -2.15727,0 -1.25842,-0.17977 -2.6966,-1.43819 -2.6966,-1.43819 l -0.89886,-0.53931 -1.61796,-0.35955 -1.61796,1.61796 -0.89886,-0.89887 z"
       style="fill:#a3e362;fill-opacity:1;fill-rule:evenodd;stroke:none;stroke-width:1px;stroke-linecap:butt;stroke-linejoin:miter;stroke-opacity:1" />
    <path
       inkscape:connector-curvature="0"
       id="path4153"
       d="m -394.78131,211.95859 1.79773,-1.25841 2.33704,0.71909 0,1.43818 -1.25841,0.89887 -1.25841,0.35954 -1.9775,-1.07863 z"
       style="fill:#a3e362;fill-opacity:1;fill-rule:evenodd;stroke:none;stroke-width:1px;stroke-linecap:butt;stroke-linejoin:miter;stroke-opacity:1" />
    <path
       inkscape:connector-curvature="0"
       id="path4155"
       d="m -387.77017,212.13836 2.15728,-1.79773 0,-1.61795 c 0,0 2.33704,-1.07864 3.05614,-1.07864 0.71909,0 5.03364,1.07864 5.03364,1.07864 l 1.61795,2.51682 c 0,0 2.15728,0.53932 3.41569,0.35954 1.25841,-0.17977 2.33705,1.61796 2.33705,1.61796 0,0 -0.71909,1.25841 -3.05614,0.71909 -2.33705,-0.53932 -3.23592,-0.53932 -5.57296,-0.35954 -2.33705,0.17977 -5.21342,1.25841 -5.21342,1.25841 0,0 -0.89886,1.61795 -1.43818,0.71909 -0.53932,-0.89887 -2.33705,-3.41569 -2.33705,-3.41569 z"
       style="fill:#a3e362;fill-opacity:1;fill-rule:evenodd;stroke:none;stroke-width:1px;stroke-linecap:butt;stroke-linejoin:miter;stroke-opacity:1" />
    <path
       inkscape:connector-curvature="0"
       id="path4157"
       d="m -408.44405,113.80258 3.23591,2.69659 1.9775,1.61796 1.25841,-1.79773 2.51682,-0.89886 c 0,0 1.25841,-1.43819 0.53932,-1.61796 -0.71909,-0.17977 -1.61796,-2.87637 -1.61796,-2.87637 l -2.15727,0 -1.9775,-1.43818 z"
       style="fill:#a3e362;fill-opacity:1;fill-rule:evenodd;stroke:none;stroke-width:1px;stroke-linecap:butt;stroke-linejoin:miter;stroke-opacity:1" />
    <path
       inkscape:connector-curvature="0"
       id="path4159"
       d="m -394.06222,98.521883 3.77523,3.415687 -0.71909,2.15727 -2.51682,1.25841 1.25841,1.61796 c 0,0 0.89886,-0.53932 2.33705,-1.07864 1.43818,-0.53932 2.51682,-1.79773 2.51682,-1.79773 l 2.15727,2.15728 c 0,0 0.53932,2.15727 -0.35954,2.51682 -0.89887,0.35955 -2.33705,0.89886 -3.05614,1.25841 -0.71909,0.35955 -1.79773,0.17977 -2.6966,0.17977 -0.89886,0 -2.87636,0.17978 -2.87636,0.17978 l 0,3.05613 0.89886,1.97751 c 0,0 1.07864,1.25841 1.25841,0.17977 0.17977,-1.07864 1.07864,-2.51682 1.07864,-2.51682 0,0 1.43818,-0.35955 3.41568,-0.35955 1.97751,0 4.13478,2.51682 4.13478,2.51682 l 2.33705,0.89887 c 0,0 2.15727,1.07864 3.59546,1.61795 1.43818,0.53932 3.77523,-0.53931 3.77523,-0.53931 l 3.05614,-2.15728 2.51682,0.53932 c 0,0 -0.17977,-1.61796 -1.9775,-2.87637 -1.79773,-1.25841 -2.15728,-0.53932 -2.33705,-1.9775 -0.17977,-1.43818 2.15727,-1.07864 2.15727,-1.07864 0,0 1.43819,1.07864 2.6966,1.07864 1.25841,0 1.61795,0.17977 1.9775,-0.71909 0.35955,-0.89886 0.89886,-3.23591 0.89886,-3.23591 0,0 -1.79773,-0.89887 -2.51682,-1.43819 -0.71909,-0.53931 -2.15727,-1.07863 -3.23591,-1.9775 -1.07864,-0.89886 -3.05614,-0.53932 -3.59546,-1.61795 -0.53932,-1.07864 -0.89886,-1.797733 -1.79773,-2.876371 -0.89886,-1.078637 0.17978,-1.977502 -2.15727,-1.977502 -2.33705,0 -5.03364,0 -5.03364,0 0,0 -1.43819,0.179773 -2.33705,-1.25841 -0.89887,-1.438184 -2.33705,-3.05614 -2.33705,-3.05614 z"
       style="fill:#a3e362;fill-opacity:1;fill-rule:evenodd;stroke:none;stroke-width:1px;stroke-linecap:butt;stroke-linejoin:miter;stroke-opacity:1" />
    <path
       inkscape:connector-curvature="0"
       id="path4161"
       d="m -378.42198,87.19619 9.88751,0.898864 c 0,0 4.6741,1.617957 5.39319,1.617957 0.71909,0 1.79773,-0.719092 2.69659,-1.438184 0.89887,-0.719091 2.33705,0.359546 2.33705,0.359546 l 1.43818,2.157275 3.41569,0.359546 0.35955,1.977502 -0.53932,1.25841 c 0,0 0,1.258411 0.71909,1.797729 0.71909,0.539319 2.51682,0.179773 2.51682,0.179773 l 1.79773,2.516821 -1.07864,2.157271 -1.9775,1.97751 c 0,0 -0.71909,2.51682 0.53932,2.51682 1.25841,0 0.35954,0.53932 2.15727,-0.53932 1.79773,-1.07864 3.95501,-2.33705 3.95501,-2.33705 l 0.71909,3.41569 -2.69659,1.9775 c 0,0 -1.25842,0.35954 -1.97751,0.53932 -0.71909,0.17977 0.53932,2.87636 0.53932,2.87636 l 3.05614,-0.17977 0.71909,1.25841 1.25841,3.05614 c 0,0 0.71909,1.61796 2.6966,2.69659 1.9775,1.07864 -2.6966,0.53932 3.955,1.79773 6.6516,1.25841 8.44933,0.89887 8.44933,0.89887 0,0 1.9775,-0.89887 1.9775,-1.79773 0,-0.89887 -0.35955,-3.41569 -0.35955,-3.41569 0,0 1.07864,-3.59546 1.79773,-3.59546 0.71909,0 3.95501,-2.33704 3.95501,-2.33704 l 3.59546,0.35954 2.69659,-2.51682 3.77523,-0.17977 c 0,0 0.53932,-1.07864 1.9775,-1.9775 1.43819,-0.89887 5.75274,-0.53932 5.75274,-0.53932 0,0 5.03364,0.71909 5.21341,-0.35955 0.17977,-1.07864 0.53932,-1.9775 2.33705,-3.955 1.79773,-1.977504 6.83137,-6.651599 6.83137,-6.651599 0,0 2.87636,-2.516821 2.33705,-3.775232 -0.53932,-1.25841 1.07863,-2.51682 1.61795,-3.595458 0.53932,-1.078637 2.33705,-2.876366 2.33705,-2.876366 l -1.61796,-1.078638 -1.9775,3.05614 -1.9775,0.898864 c 0,0 -0.17977,-1.25841 0,-2.337048 0.17977,-1.078637 0.53932,-2.157275 0.89886,-2.876366 0.35955,-0.719092 0.35955,-1.078638 2.15728,-1.438184 1.79773,-0.359545 4.85387,-1.617956 5.57296,-2.157274 0.71909,-0.539319 1.9775,-2.516821 1.9775,-2.516821 0,0 -3.59546,-1.078638 -4.67409,-1.078638 -1.07864,0 -7.55047,1.258411 -7.55047,1.258411 l -2.15727,-1.258411 -4.85387,-0.359546 c 0,0 -7.01114,-3.235912 -7.73024,-3.595458 -0.71909,-0.359546 -5.21341,0.179773 -6.83137,0.179773 -1.61795,0 -7.37069,1.438183 -9.70773,1.797729 -2.33705,0.359546 -3.41569,1.977502 -4.13478,2.157275 -0.71909,0.179773 -2.87637,-0.719091 -4.31455,-0.898864 -1.43818,-0.179773 -3.77523,-0.179773 -5.39319,0 -1.61795,0.179773 -6.47182,1.438183 -7.73023,1.25841 -1.25841,-0.179773 -8.98865,-1.438183 -8.98865,-1.438183 l -3.05614,-1.078638 -19.95479,8.089781 z"
       style="fill:#a3e362;fill-opacity:1;fill-rule:evenodd;stroke:none;stroke-width:1px;stroke-linecap:butt;stroke-linejoin:miter;stroke-opacity:1" />
    <path
       inkscape:connector-curvature="0"
       id="path4163"
       d="m -292.6703,107.87007 c 0,0 0.89887,1.97751 2.15728,1.79773 1.25841,-0.17977 2.51682,-1.25841 3.77523,-1.07863 1.25841,0.17977 4.13477,0.35954 4.13477,0.35954 l 3.77524,-1.79773 1.79772,2.87637 1.25841,3.23591 c 0,0 -0.35954,0.89887 -1.79772,0.53932 -1.43819,-0.35955 -0.89887,-0.35955 -2.33705,0.35955 -1.43819,0.71909 -2.15728,0.71909 -3.05614,0.89886 -0.89887,0.17977 -1.9775,0.71909 -1.9775,0.71909 l -2.6966,-1.61795 c 0,0 -0.71909,0.89886 -2.33705,0.71909 -1.61795,-0.17977 -1.9775,-1.61796 -1.9775,-1.61796 l -1.79773,-1.61795 -0.89886,-2.15728 z"
       style="fill:#a3e362;fill-opacity:1;fill-rule:evenodd;stroke:none;stroke-width:1px;stroke-linecap:butt;stroke-linejoin:miter;stroke-opacity:1" />
    <path
       inkscape:connector-curvature="0"
       id="path4165"
       d="m -263.00777,131.42033 -2.87637,1.61795 -2.87636,2.33705 -0.71909,2.15727 0.35954,2.51683 2.15728,1.43818 1.25841,-0.89887 c 0,0 0.89886,-0.53931 2.15727,-0.71909 1.25841,-0.17977 1.43819,0.17978 1.79773,-0.53932 0.35955,-0.71909 0,-1.07863 0.17977,-2.33704 0.17978,-1.25841 0.35955,-3.59546 0.35955,-3.59546 l -1.79773,-2.51682 z"
       style="fill:#a3e362;fill-opacity:1;fill-rule:evenodd;stroke:none;stroke-width:1px;stroke-linecap:butt;stroke-linejoin:miter;stroke-opacity:1" />
    <path
       inkscape:connector-curvature="0"
       id="path4169"
       d="m -263.72686,127.10578 3.05614,2.87636 c 0,0 1.25841,2.6966 2.15727,3.41569 0.89887,0.71909 2.33705,2.15727 2.33705,2.15727 l 0,1.07864 -3.05614,1.07864 c 0,0 -0.71909,1.79773 -0.53932,2.69659 0.17978,0.89887 -1.43818,2.87637 -1.43818,2.87637 0,0 0.17977,1.43818 0.89887,1.25841 0.71909,-0.17977 1.9775,-1.43818 2.69659,-1.61796 0.71909,-0.17977 0.53932,-0.71909 2.69659,-0.17977 2.15728,0.53932 2.33705,0.53932 3.59546,0.35955 1.25841,-0.17978 1.43818,-0.89887 2.15728,-1.61796 0.71909,-0.71909 1.61795,-3.23591 1.61795,-3.23591 0,0 -0.89886,-1.43819 -1.79773,-2.15728 -0.89886,-0.71909 -2.33705,-2.87636 -2.33705,-2.87636 l -2.15727,-3.05614 c 0,0 -1.43818,-0.89887 -0.71909,-1.97751 0.71909,-1.07863 1.25841,-0.53932 0.89886,-1.61795 -0.35954,-1.07864 -0.71909,-1.61796 -1.43818,-2.15728 -0.71909,-0.53932 -0.71909,-0.53932 -1.61796,-0.35954 -0.89886,0.17977 -2.15727,0 -2.15727,0 l -1.79773,1.07863 -1.79773,1.25841 z"
       style="fill:#a3e362;fill-opacity:1;fill-rule:evenodd;stroke:none;stroke-width:1px;stroke-linecap:butt;stroke-linejoin:miter;stroke-opacity:1" />
    <path
       inkscape:connector-curvature="0"
       id="path4171"
       d="m -267.14255,158.02672 c 0,0 5.75274,0 6.6516,0 0.89887,0 1.79773,-0.53932 3.05614,-0.89887 1.25841,-0.35954 2.51682,-1.79773 2.51682,-1.79773 0,0 0.89887,-1.79773 0.53932,-2.69659 -0.35954,-0.89887 -1.9775,-1.79773 -2.69659,-2.51682 -0.71909,-0.71909 -1.61796,-1.61796 -1.61796,-1.61796 0,0 0.17977,-1.25841 1.07864,-1.9775 0.89886,-0.71909 -0.35955,-1.07864 1.43818,-0.71909 1.79773,0.35954 2.51682,1.43818 3.77523,0.71909 1.25841,-0.71909 3.77523,-1.79773 4.6741,-2.87637 0.89886,-1.07863 5.57296,-4.31455 5.57296,-4.31455 0,0 0.89886,-1.61795 1.61796,-1.79773 0.71909,-0.17977 3.23591,-2.87636 4.31455,-2.87636 1.07863,0 2.33704,0.53932 3.77523,0.53932 1.43818,0 3.41568,-0.35955 4.49432,-0.17978 1.07864,0.17978 3.05614,1.61796 3.05614,1.61796 0,0 1.9775,-1.07864 2.33705,-1.79773 0.35954,-0.71909 0.71909,-0.71909 1.79773,-0.35954 1.07863,0.35954 1.07863,0.35954 2.51682,0 1.43818,-0.35955 4.31455,0 4.85386,-1.07864 0.53932,-1.07864 2.33705,-3.95501 2.33705,-3.95501 l 1.9775,-1.61795 1.79773,0.17977 1.07864,-3.23591 -1.9775,0 -1.43818,-2.15728 0.35954,-2.51682 c 0,0 -1.43818,-0.17977 -2.15727,-0.53932 -0.71909,-0.35954 -1.43819,-1.07863 -1.07864,-1.79773 0.35955,-0.71909 1.9775,-1.43818 3.41568,-2.15727 1.43819,-0.71909 1.43819,0 2.15728,-1.61796 0.71909,-1.61795 0.71909,-0.35954 0.71909,-1.79773 0,-1.43818 -0.17977,-3.23591 -1.25841,-3.77523 -1.07864,-0.53932 -1.79773,0.89887 -2.69659,1.43819 -0.89887,0.53932 -2.15728,1.79773 -3.77523,3.23591 -1.61796,1.43818 -3.23592,1.79773 -4.13478,2.87637 -0.89887,1.07863 -2.15728,2.15727 -2.15728,2.15727 l -0.35954,1.43818 1.43818,1.07864 1.43819,2.33705 c 0,0 -0.17978,0.53932 -0.89887,1.43818 -0.71909,0.89887 -1.43818,3.05614 -1.61796,3.59546 -0.17977,0.53932 -2.33704,3.41569 -2.33704,3.41569 0,0 -2.51682,0 -3.23592,-0.35955 -0.71909,-0.35955 -3.955,-0.17977 -3.955,-0.17977 0,0 -3.59546,1.25841 -4.31455,1.61795 -0.71909,0.35955 -2.51682,1.07864 -2.51682,1.07864 l -1.25841,-0.71909 -0.89887,-0.89887 3.59546,-3.05613 1.43819,-1.43819 c 0,0 1.9775,1.43819 2.69659,1.9775 0.71909,0.53932 1.07864,0.89887 1.9775,-0.17977 0.89887,-1.07864 0,-3.59546 0,-3.59546 l -1.25841,-1.9775 c 0,0 0,1.25841 -2.33705,1.25841 -2.33704,0 -3.05614,0.35955 -4.49432,0.71909 -1.43818,0.35955 -3.05614,0.17978 -3.05614,0.17978 l -0.17977,-3.05614 c 0,0 -0.17977,-2.51682 -0.53932,-3.41569 -0.35955,-0.89886 0,-1.79773 0.89886,-1.9775 0.89887,-0.17977 3.59546,-1.61796 4.49433,-1.79773 0.89886,-0.17977 5.03364,-3.59546 5.03364,-3.59546 0,0 -0.35955,-1.61795 1.61795,-1.9775 1.97751,-0.35955 1.07864,0.17977 3.05614,-1.07864 1.97751,-1.25841 2.51682,-2.15727 3.95501,-3.23591 1.43818,-1.07864 1.9775,-1.61796 2.87636,-2.33705 0.89887,-0.71909 3.59546,-0.71909 4.49433,-0.71909 0.89886,0 4.67409,-1.61796 5.21341,-2.33705 0.53932,-0.719089 1.43819,-0.719089 3.41569,-0.898862 1.9775,-0.179773 2.15727,0.719092 5.9325,0.539319 3.77523,-0.179773 6.6516,-0.719092 6.6516,-0.719092 l 4.6741,0.898865 5.21341,-2.157275 2.15728,8.808875 -2.33705,0.89886 -4.6741,0.35955 0.71909,2.69659 3.23592,1.79773 4.13477,-1.61796 3.41569,-1.43818 c 0,0 25.70752,34.33663 26.42662,34.87595 0.71909,0.53931 12.76387,25.70752 12.76387,25.70752 l 0.35955,30.5614 -5.21342,-2.51682 -2.87636,-1.79773 -2.15728,-1.79773 c 0,0 -1.61795,-1.9775 -2.33704,-1.07864 -0.7191,0.89886 -2.6966,0.35955 -2.6966,0.35955 0,0 0,-1.97751 -1.07864,-2.87637 -1.07863,-0.89887 -2.51682,-1.9775 -3.23591,-2.15728 -0.71909,-0.17977 -0.71909,-0.35954 -1.9775,-1.25841 -1.25841,-0.89886 -2.87637,-0.17977 -2.87637,-0.17977 0,0 -1.25841,1.9775 -0.71909,3.23591 0.53932,1.25841 0.89887,3.77523 1.61796,4.49433 0.71909,0.71909 0.89886,1.07863 1.9775,1.79773 1.07864,0.71909 2.87637,1.79772 2.87637,1.79772 l 2.69659,-0.89886 c 0,0 1.07864,-1.07864 2.51682,-1.43818 1.43818,-0.35955 0.17977,-2.6966 2.15728,-0.17978 1.9775,2.51682 3.955,3.41569 3.955,3.41569 0,0 1.79773,0.35954 2.15727,1.07864 0.35955,0.71909 0.7191,3.955 0.7191,3.955 l -0.17978,2.87637 -1.61795,1.07863 -1.9775,3.77524 -1.97751,2.15727 -3.59546,2.33705 c 0,0 -1.61795,-1.07864 -2.51682,-0.17977 -0.89886,0.89886 -4.31455,1.25841 -4.13477,1.9775 0.17977,0.71909 -1.79773,2.15727 -2.87637,2.87636 -1.07864,0.7191 -2.51682,1.61796 -3.59546,1.79773 -1.07864,0.17978 -0.53932,0.53932 -1.9775,0.35955 -1.43818,-0.17977 -3.41568,0 -3.41568,0 l -1.43819,0 c 0,0 -2.33705,-3.41569 -1.61795,-4.13478 0.71909,-0.71909 1.07863,-2.69659 0.53931,-4.49432 -0.53931,-1.79773 -0.71909,-1.79773 -1.25841,-2.87637 -0.53931,-1.07863 -1.9775,-2.51682 -1.9775,-3.59546 0,-1.07863 -3.23591,-5.57296 -3.23591,-5.57296 0,0 -2.15728,-2.87636 -2.33705,-4.13477 -0.17977,-1.25841 -0.89886,-3.05614 -1.43818,-3.95501 -0.53932,-0.89886 -0.17977,0.35955 -1.07864,-0.71909 -0.89886,-1.07864 -1.79773,-1.79773 -2.69659,-2.51682 -0.89887,-0.71909 -1.79773,-0.71909 -1.79773,0 0,0.71909 0.89886,4.6741 1.61795,6.6516 0.7191,1.9775 2.87637,7.91001 2.87637,7.91001 0,0 0.17977,1.9775 0.53932,2.69659 0.35955,0.71909 0.71909,4.13478 0.71909,4.13478 0,0 3.59546,3.23591 3.95501,4.13477 0.35954,0.89887 1.43818,4.49433 2.33704,5.75274 0.89887,1.25841 2.33705,3.23591 2.33705,3.23591 0,0 0.71909,0.89886 3.05614,1.43818 2.33705,0.53932 2.33705,0.53932 2.33705,0.53932 l 4.49432,-0.17977 c 0,0 0.89887,-1.79773 2.69659,-1.25841 1.79773,0.53932 5.21342,1.43818 5.21342,1.43818 0,0 -1.07864,3.05614 -1.07864,3.77523 0,0.71909 -4.13478,5.75274 -4.13478,5.75274 l 0.53932,3.41568 -3.05614,4.31455 c 0,0 -1.25841,2.15728 -2.69659,2.51682 -1.43818,0.35955 -1.79773,1.07864 -2.69659,1.79773 -0.89887,0.71909 -3.41569,3.95501 -4.13478,5.21342 -0.71909,1.25841 -2.33705,5.9325 -2.33705,5.9325 l -1.79773,0.71909 -1.25841,1.97751 c 0,0 1.61796,3.59545 1.43819,4.67409 -0.17978,1.07864 0.17977,5.57296 0.17977,5.57296 l 0.53932,5.03364 1.61795,0.53932 c 0,0 1.07864,2.51682 -0.53932,3.77523 -1.61795,1.25841 -4.67409,2.6966 -4.67409,2.6966 0,0 -2.15728,1.9775 -3.41569,2.87636 -1.25841,0.89887 -1.79773,3.05614 -1.79773,3.05614 l -0.89886,2.6966 1.25841,4.31455 0.71909,4.31455 -3.23591,1.9775 c 0,0 -1.43818,1.25841 -1.25841,2.69659 0.17977,1.43818 -0.53932,3.77523 -1.43818,3.77523 -0.89887,0 -1.25841,-0.35954 -1.79773,0.35955 -0.53932,0.71909 -0.89887,2.51682 -0.89887,3.41568 0,0.89887 -1.61795,3.05614 -1.61795,3.05614 l -2.6966,2.87637 c 0,0 -1.25841,1.25841 -2.87636,1.79773 -1.61796,0.53932 -4.31455,1.07864 -5.03365,1.07864 -0.71909,0 -2.69659,0.17977 -3.59545,0.17977 -0.89887,0 -3.41569,0.89886 -3.41569,0.89886 0,0 -0.17977,0.89887 -1.07864,1.07864 -0.89886,0.17977 -2.51682,-1.25841 -2.51682,-1.25841 0,0 0.17978,-1.07864 -0.71909,-1.9775 -0.89886,-0.89887 -2.69659,-1.43818 -2.69659,-2.33705 0,-0.89886 -0.17978,-2.51682 -0.89887,-3.955 -0.71909,-1.43819 -2.33704,-3.41569 -2.33704,-3.41569 0,0 -1.61796,-0.35954 -1.97751,-1.61795 -0.35954,-1.25841 -0.35954,-1.43819 -1.25841,-2.51683 -0.89886,-1.07863 0.71909,-1.07863 0.89887,-3.23591 0.17977,-2.15727 0,-2.33705 -0.17978,-4.49432 -0.17977,-2.15728 -1.9775,-3.23591 -2.15727,-5.21341 -0.17977,-1.97751 -2.69659,-5.57297 -2.69659,-5.57297 0,0 -0.89887,-1.9775 -0.53932,-3.41568 0.35954,-1.43818 0.89886,-2.51682 1.43818,-3.41569 0.53932,-0.89886 2.69659,-8.08978 2.33705,-9.88751 -0.35955,-1.79772 -0.89887,-3.955 -1.07864,-5.57296 -0.17977,-1.61795 -3.41568,-4.31455 -3.23591,-5.57296 0.17977,-1.25841 -2.15728,-3.59545 -2.15728,-3.59545 0,0 -2.87636,-1.79773 -3.05614,-2.6966 -0.17977,-0.89886 -1.43818,-3.23591 -0.71909,-3.955 0.71909,-0.71909 1.07864,-1.43819 1.79773,-2.33705 0.71909,-0.89886 2.15728,-1.43818 2.33705,-3.05614 0.17977,-1.61796 0.35955,-2.15727 -0.71909,-3.05614 -1.07864,-0.89886 -0.35955,0 -1.61796,-1.25841 -1.25841,-1.25841 -1.61795,-1.79773 -1.61795,-1.79773 l -2.33705,1.61796 c 0,0 -1.43819,0 -1.79773,-0.89887 -0.35955,-0.89886 -0.17977,-0.89886 -1.43819,-2.51682 -1.25841,-1.61795 -0.35954,-1.61795 -1.9775,-1.43818 -1.61795,0.17977 -3.955,1.43818 -3.955,1.43818 0,0 -2.33705,1.61796 -3.05614,1.43819 -0.71909,-0.17978 -3.41569,-0.53932 -3.41569,-0.53932 l -3.59545,-0.71909 -1.97751,0.89886 c 0,0 -2.51682,1.79773 -3.41568,1.43818 -0.89887,-0.35954 -3.23591,-0.71909 -3.23591,-0.71909 0,0 -2.87637,0.35955 -3.41569,-0.53932 -0.53932,-0.89886 -2.15727,-0.71909 -2.51682,-2.69659 -0.35955,-1.9775 -1.07864,-2.51682 -2.33705,-4.13478 -1.25841,-1.61795 -1.07864,-2.15727 -2.87636,-3.41568 -1.79773,-1.25841 -1.97751,-1.43819 -2.51683,-2.15728 -0.53931,-0.71909 -1.25841,-1.43818 -1.79772,-3.05614 -0.53932,-1.61795 0.35954,-7.37069 0.35954,-7.37069 0,0 1.43818,-2.87636 1.61796,-3.77523 0.17977,-0.89886 -1.43819,-3.77523 -1.61796,-4.67409 -0.17977,-0.89887 -2.33705,-0.35955 -0.89886,-2.6966 1.43818,-2.33705 0.71909,-2.87636 2.87636,-5.21341 2.15728,-2.33705 5.03365,-8.98865 5.75274,-9.70774 0.71909,-0.71909 1.25841,-0.71909 2.87636,-2.69659 1.61796,-1.9775 2.51682,-2.15728 2.15728,-2.87637 -0.35955,-0.71909 -1.9775,-1.79773 -0.89887,-3.23591 1.07864,-1.43818 3.05614,-1.61796 3.77523,-2.33705 0.7191,-0.71909 0.7191,-1.07864 2.15728,-1.9775 1.43818,-0.89887 2.15727,-1.07864 2.15727,-1.07864 l 4.31455,-1.43818 c 0,0 1.79773,0.35954 2.51683,0.17977 0.71909,-0.17977 1.25841,-1.79773 2.33704,-2.33705 1.07864,-0.53932 0.71909,-0.71909 1.97751,-0.89886 1.25841,-0.17977 4.85386,-0.53932 4.85386,-0.53932 0,0 0,-0.35955 1.43819,-0.71909 1.43818,-0.35955 7.55046,0.35954 7.55046,0.35954 l 3.77523,0 c 0,0 1.9775,1.97751 2.33705,3.05614 0.35954,1.07864 0.71909,3.59546 0.71909,3.59546 0,0 1.9775,1.61796 2.69659,1.43818 0.7191,-0.17977 5.39319,1.79773 5.39319,1.79773 0,0 0.35955,2.6966 1.25841,2.6966 0.89887,0 3.77523,-0.17978 3.77523,-0.17978 l 2.87637,-2.33704 c 0,0 2.33705,-2.51682 3.05614,-1.79773 0.71909,0.71909 4.49432,3.41568 4.49432,3.41568 0,0 3.95501,0.89887 5.03364,0.71909 1.07864,-0.17977 3.41569,-0.53931 3.41569,-0.53931 0,0 3.77523,0.17977 4.49432,0.17977 0.71909,0 3.05614,0.17977 3.05614,0.17977 l 1.9775,0.17977 c 0,0 0,-1.43818 0.35955,-2.15727 0.35954,-0.71909 -0.71909,-1.61796 0.53932,-2.15728 1.25841,-0.53931 2.69659,-0.89886 2.69659,-0.89886 l 0.35955,-4.49432 -1.61796,-2.51682 0.17977,1.9775 -1.25841,2.51682 c 0,0 -0.89886,1.25841 -1.61795,1.25841 -0.7191,0 -0.89887,0.71909 -2.33705,-0.53932 -1.43818,-1.25841 -2.33705,-1.43818 -2.15728,-2.69659 0.17978,-1.25841 0.7191,-1.79773 -0.35954,-1.79773 -1.07864,0 -3.59546,1.25841 -3.59546,1.25841 l -2.33705,0.35954 c 0,0 -1.43818,0 -1.25841,-0.89886 0.17977,-0.89886 0.35955,-3.05614 -0.35954,-3.59546 -0.7191,-0.53932 -2.33705,-0.89886 -2.51683,-1.79773 -0.17977,-0.89886 -1.25841,-1.43818 -1.25841,-2.51682 0,-1.07864 -0.71909,-1.07864 -0.71909,-1.07864 l -1.61795,0.7191 2.15727,3.05614 1.79773,2.69659 -2.69659,0.17977 -2.33705,0.35955 1.79773,2.15727 2.33705,1.9775 c 0,0 0.53931,1.43819 -0.17978,1.43819 -0.71909,0 -1.9775,-0.71909 -2.69659,-1.9775 -0.71909,-1.25841 -3.23591,-3.41569 -3.23591,-3.41569 0,0 -0.17978,-1.25841 -1.43819,-1.9775 -1.25841,-0.71909 -2.33704,-1.07864 -2.15727,-1.79773 0.17977,-0.71909 -0.53932,-3.23591 -0.53932,-3.23591 0,0 0.71909,-1.25841 0.17977,-2.33705 -0.53932,-1.07864 -1.25841,-2.51682 -2.15727,-3.05614 -0.89887,-0.53932 -3.95501,-2.15727 -4.85387,-2.69659 -0.89886,-0.53932 -2.33705,-1.43819 -2.33705,-1.43819 0,0 -0.35954,-0.17977 -1.07864,-0.89886 -0.71909,-0.71909 -3.41568,0.35954 -3.41568,0.35954 l 3.41568,4.13478 3.23592,2.69659 2.69659,1.43819 2.33705,0.89886 -0.89887,2.15728 -2.51682,-0.89887 0.17978,1.97751 c 0,0 -0.17978,1.25841 -0.89887,1.61795 -0.71909,0.35955 -1.9775,0.71909 -1.9775,0.71909 l -0.89887,-1.25841 0.7191,-1.07863 0.17977,-1.97751 -0.89887,-0.89886 c 0,0 -1.25841,-0.71909 -1.79772,-1.43818 -0.53932,-0.7191 -1.61796,-1.61796 -1.61796,-1.61796 l -3.41569,-1.61796 c 0,0 -1.07863,-0.53932 -1.43818,-1.9775 -0.35954,-1.43818 -2.15727,-2.15727 -2.15727,-2.15727 l -2.51682,0.53931 -0.7191,2.33705 c 0,0 -0.89886,1.79773 -1.61795,1.79773 -0.71909,0 -2.87637,-1.25841 -2.87637,-1.25841 0,0 -1.43818,-0.17977 -1.25841,0.53932 0.17977,0.71909 -0.35955,2.87637 -0.35955,2.87637 l -1.43818,1.25841 -2.15727,1.25841 -2.15728,1.07863 -0.89886,1.79773 -1.07864,1.61796 c 0,0 0.17977,0 -1.25841,0.35955 -1.43818,0.35954 -2.15728,0.89886 -3.23591,1.07863 -1.07864,0.17978 -2.51682,0.89887 -2.51682,0.89887 l -1.61796,3.05614 -2.33705,-0.17978 -2.33705,-2.33704 c 0,0 -1.07863,-1.07864 -1.9775,-1.25841 -0.89886,-0.17978 -2.33705,-0.35955 -2.33705,-0.35955 0,0 0,-3.05614 0.17978,-3.955 0.17977,-0.89887 1.07863,-1.97751 1.07863,-1.97751 0,0 -0.35954,-2.15727 -0.35954,-3.05614 0,-0.89886 0.35954,-3.59545 0.35954,-3.59545 z"
       style="fill:#a3e362;fill-opacity:1;fill-rule:evenodd;stroke:none;stroke-width:1px;stroke-linecap:butt;stroke-linejoin:miter;stroke-opacity:1" />
    <path
       inkscape:connector-curvature="0"
       id="path4173"
       d="m -157.12152,282.2498 c 0,0 -2.33705,-1.25841 -2.33705,-2.33705 0,-1.07864 -0.71909,-2.87637 -0.71909,-2.87637 0,0 -2.6966,0.7191 -2.6966,1.25841 0,0.53932 -1.07863,3.41569 -1.07863,3.41569 l -1.79773,3.05614 -1.97751,0.35954 -1.9775,1.97751 c 0,0 -0.53932,0.35954 -0.89886,1.43818 -0.35955,1.07864 -0.17978,3.955 -0.17978,3.955 l -0.35954,1.43819 -1.61796,2.87636 0.53932,3.05614 0.35955,1.25841 2.15727,2.51682 c 0,0 11.3257,-13.30319 11.50547,-14.02228 0.17977,-0.71909 1.07864,-7.37069 1.07864,-7.37069 z"
       style="fill:#a3e362;fill-opacity:1;fill-rule:evenodd;stroke:none;stroke-width:1px;stroke-linecap:butt;stroke-linejoin:miter;stroke-opacity:1" />
    <path
       inkscape:connector-curvature="0"
       id="path4177"
       d="m -205.66021,84.499596 -4.31455,1.977502 c 0,0 -2.69659,-1.25841 -2.51682,-1.977502 0.17977,-0.719091 0.17977,-1.438183 0.17977,-1.438183 l -1.61795,2.157275 c 0,0 -0.53932,1.078637 -2.33705,1.617956 -1.79773,0.539319 -2.6966,0.898865 -3.77523,1.25841 -1.07864,0.359546 -1.25841,1.078638 -1.9775,-0.359545 -0.7191,-1.438184 -1.07864,-2.876367 -1.97751,-3.415686 -0.89886,-0.539318 -1.07863,-1.25841 -2.69659,-1.438183 -1.61796,-0.179773 -5.75273,-1.617956 -5.75273,-1.617956 l 0.71909,-1.977502 3.41568,-0.719092 c 0,0 0.35955,0.539319 1.79773,0.359546 1.43819,-0.179773 1.25841,0.359546 2.6966,0.179773 1.43818,-0.179773 1.9775,-0.359546 3.41568,-1.25841 1.43818,-0.898865 1.43818,-1.078638 2.15728,-1.258411 0.71909,-0.179773 12.5841,7.910008 12.5841,7.910008 z"
       style="fill:#a3e362;fill-opacity:1;fill-rule:evenodd;stroke:none;stroke-width:1px;stroke-linecap:butt;stroke-linejoin:miter;stroke-opacity:1" />
    <circle
       style="opacity:1;fill:#ffffff;fill-opacity:0.0658683;stroke:none;stroke-width:0.17210896;stroke-linejoin:round;stroke-miterlimit:4;stroke-dasharray:none;stroke-opacity:0.76646711"
       id="circle4181"
       cx="-305.08475"
       cy="197.28813"
       r="150.52242" />
    <circle
       r="167.81055"
       cy="126.10169"
       cx="-301.01694"
       id="circle4183"
       style="opacity:1;fill:none;fill-opacity:0.0658683;stroke:#ff0000;stroke-width:3.87199998;stroke-linejoin:round;stroke-miterlimit:4;stroke-dasharray:none;stroke-opacity:0.97005986" />
    <circle
       style="opacity:1;fill:none;fill-opacity:0.0658683;stroke:#ff9000;stroke-width:3.6400001;stroke-linejoin:round;stroke-miterlimit:4;stroke-dasharray:3.6400001, 3.6400001;stroke-dashoffset:0;stroke-opacity:0.94011972"
       id="circle4185"
       cx="-301.01694"
       cy="126.10169"
       r="157.75703" />
    <circle
       r="179.87476"
       cy="126.10169"
       cx="-301.01694"
       id="circle4187"
       style="opacity:1;fill:none;fill-opacity:0.0658683;stroke:#ff6a00;stroke-width:4.15033245;stroke-linejoin:round;stroke-miterlimit:4;stroke-dasharray:4.15033225, 4.15033225;stroke-dashoffset:0;stroke-opacity:0.95209578" />
  </g>
</svg>
