<?xml version="1.0" encoding="UTF-8" standalone="no"?>
<!-- Generator: Adobe Illustrator 22.0.1, SVG Export Plug-In . SVG Version: 6.00 Build 0)  -->

<svg
   xmlns:dc="http://purl.org/dc/elements/1.1/"
   xmlns:cc="http://creativecommons.org/ns#"
   xmlns:rdf="http://www.w3.org/1999/02/22-rdf-syntax-ns#"
   xmlns:svg="http://www.w3.org/2000/svg"
   xmlns="http://www.w3.org/2000/svg"
   xmlns:sodipodi="http://sodipodi.sourceforge.net/DTD/sodipodi-0.dtd"
   xmlns:inkscape="http://www.inkscape.org/namespaces/inkscape"
   version="1.1"
   id="Layer_1"
   x="0px"
   y="0px"
   viewBox="0 0 30 30"
   style="enable-background:new 0 0 30 30;"
   xml:space="preserve"
   inkscape:version="0.91 r"
   sodipodi:docname="frost-nigh.svg"><metadata
     id="metadata9"><rdf:RDF><cc:Work
         rdf:about=""><dc:format>image/svg+xml</dc:format><dc:type
           rdf:resource="http://purl.org/dc/dcmitype/StillImage" /><dc:title></dc:title></cc:Work></rdf:RDF></metadata><defs
     id="defs7"><filter
       height="1.4997"
       width="1.403"
       y="-.21122"
       x="-.20655"
       id="blur"><feGaussianBlur
         id="feGaussianBlur4138"
         stdDeviation="3"
         in="SourceAlpha" /><feOffset
         id="feOffset4140"
         result="offsetblur"
         dy="4"
         dx="0" /><feComponentTransfer
         id="feComponentTransfer4142"><feFuncA
           id="feFuncA4144"
           type="linear"
           slope="0.05" /></feComponentTransfer><feMerge
         id="feMerge4146"><feMergeNode
           id="feMergeNode4148" /><feMergeNode
           id="feMergeNode4150"
           in="SourceGraphic" /></feMerge></filter></defs><sodipodi:namedview
     pagecolor="#ffffff"
     bordercolor="#666666"
     borderopacity="1"
     objecttolerance="10"
     gridtolerance="10"
     guidetolerance="10"
     inkscape:pageopacity="0"
     inkscape:pageshadow="2"
     inkscape:window-width="1366"
     inkscape:window-height="700"
     id="namedview5"
     showgrid="false"
     inkscape:zoom="7.8666667"
     inkscape:cx="0.75559322"
     inkscape:cy="15"
     inkscape:window-x="0"
     inkscape:window-y="0"
     inkscape:window-maximized="1"
     inkscape:current-layer="Layer_1" /><path
     style="fill:#ffffff"
     id="path3-9"
     d="m 18.851473,6.2288135 c 0,-0.5475758 0.108372,-1.0666322 0.319419,-1.5685768 0.211044,-0.5019446 0.501944,-0.9297381 0.861291,-1.2890849 0.359348,-0.3593467 0.792845,-0.6502463 1.294789,-0.8669951 0.501945,-0.2167488 1.026705,-0.3251233 1.568577,-0.3251233 l 0.650246,0 c 0.09127,0.022816 0.13119,0.079855 0.13119,0.1597097 l 0.02852,0.5019446 c 0.02281,0.7243972 0.279491,1.3404201 0.781435,1.8480685 0.501947,0.5076486 1.106561,0.7814366 1.81955,0.8099561 l 0.467722,0.039928 c 0.09126,0 0.136893,0.045631 0.136893,0.1311901 l 0,0.5589837 c 0.0058,0.7301011 -0.171117,1.4088671 -0.530464,2.0305937 -0.359347,0.6217268 -0.844179,1.1122637 -1.465905,1.477314 -0.616024,0.3593462 -1.29479,0.5418732 -2.02489,0.5418732 -0.553281,0 -1.083744,-0.108372 -1.58569,-0.3194199 C 20.802211,9.7481293 20.374418,9.4572289 20.015072,9.0978828 19.655725,8.7385361 19.370529,8.3050385 19.159484,7.8087978 18.959847,7.3068536 18.851473,6.7820932 18.851473,6.2288135 Z m 1.043815,0 c 0,0.4334975 0.08556,0.8441796 0.256677,1.2320457 0.171119,0.3821622 0.399275,0.7072853 0.678767,0.9696655 0.279491,0.2623802 0.59891,0.467721 0.963961,0.6160229 0.359346,0.1540062 0.730102,0.2281562 1.10656,0.2281562 0.330827,0 0.667358,-0.062738 1.003889,-0.1939328 0.336531,-0.13119 0.650246,-0.3137153 0.941147,-0.5475758 C 25.137188,8.2993346 25.382456,8.002731 25.593501,7.6376806 25.804546,7.27263 25.935736,6.8790599 25.998479,6.4455623 25.068741,6.2516291 24.321528,5.8523551 23.762544,5.24774 23.203561,4.643125 22.878438,3.9358394 22.792879,3.1144757 22.245303,3.1486991 21.754766,3.3141127 21.304156,3.6164201 20.859251,3.9187277 20.511312,4.30089 20.266045,4.7686112 20.020775,5.2363322 19.895288,5.721165 19.895288,6.2288135 Z"
     inkscape:connector-curvature="0" /><g
     style="fill:#5e3d5e;fill-opacity:1;stroke:#ffffff;stroke-width:2;stroke-linecap:round;stroke-opacity:1;filter:url(#blur)"
     transform="matrix(0.59416638,0,0,0.59416638,-1.5346402,-0.90867964)"
     id="g4154"><path
       style="fill:#5e3d5e;fill-opacity:1;stroke:#ffffff;stroke-opacity:1"
       inkscape:connector-curvature="0"
       d="m 11,32 34,0"
       id="path4156" /><path
       style="fill:#5e3d5e;fill-opacity:1;stroke:#ffffff;stroke-opacity:1"
       inkscape:connector-curvature="0"
       d="m 15.5,37 25,0"
       id="path4158" /><path
       style="fill:#5e3d5e;fill-opacity:1;stroke:#ffffff;stroke-opacity:1"
       inkscape:connector-curvature="0"
       d="m 22.5,42 11,0"
       id="path4160" /><path
       style="fill:#5e3d5e;fill-opacity:1;stroke:#ffffff;stroke-opacity:1"
       inkscape:connector-curvature="0"
       d="M 28,31 28,9 m 0,13 11,-3.67 M 34,20 36,16 m -2,4 4,2 M 28,22 17,18.33 M 22,20 20,16 m 2,4 -4,2 m 10,-7.73 3.01,-3.02 M 28,14.27 24.99,11.25"
       id="path4162" /></g></svg>