<?xml version="1.0" encoding="UTF-8" standalone="no"?>
<!-- Generator: Adobe Illustrator 22.0.1, SVG Export Plug-In . SVG Version: 6.00 Build 0)  -->

<svg
   xmlns:dc="http://purl.org/dc/elements/1.1/"
   xmlns:cc="http://creativecommons.org/ns#"
   xmlns:rdf="http://www.w3.org/1999/02/22-rdf-syntax-ns#"
   xmlns:svg="http://www.w3.org/2000/svg"
   xmlns="http://www.w3.org/2000/svg"
   xmlns:sodipodi="http://sodipodi.sourceforge.net/DTD/sodipodi-0.dtd"
   xmlns:inkscape="http://www.inkscape.org/namespaces/inkscape"
   version="1.1"
   id="Layer_1"
   x="0px"
   y="0px"
   viewBox="0 0 30 30"
   style="enable-background:new 0 0 30 30;"
   xml:space="preserve"
   inkscape:version="0.91 r"
   sodipodi:docname="frostday.svg"><metadata
     id="metadata9"><rdf:RDF><cc:Work
         rdf:about=""><dc:format>image/svg+xml</dc:format><dc:type
           rdf:resource="http://purl.org/dc/dcmitype/StillImage" /><dc:title></dc:title></cc:Work></rdf:RDF></metadata><defs
     id="defs7"><filter
       height="1.4997"
       width="1.403"
       y="-.21122"
       x="-.20655"
       id="blur"><feGaussianBlur
         id="feGaussianBlur4138"
         stdDeviation="3"
         in="SourceAlpha" /><feOffset
         id="feOffset4140"
         result="offsetblur"
         dy="4"
         dx="0" /><feComponentTransfer
         id="feComponentTransfer4142"><feFuncA
           id="feFuncA4144"
           type="linear"
           slope="0.05" /></feComponentTransfer><feMerge
         id="feMerge4146"><feMergeNode
           id="feMergeNode4148" /><feMergeNode
           id="feMergeNode4150"
           in="SourceGraphic" /></feMerge></filter></defs><sodipodi:namedview
     pagecolor="#ffffff"
     bordercolor="#666666"
     borderopacity="1"
     objecttolerance="10"
     gridtolerance="10"
     guidetolerance="10"
     inkscape:pageopacity="0"
     inkscape:pageshadow="2"
     inkscape:window-width="1366"
     inkscape:window-height="700"
     id="namedview5"
     showgrid="false"
     inkscape:zoom="7.8666667"
     inkscape:cx="-16.84322"
     inkscape:cy="15"
     inkscape:window-x="0"
     inkscape:window-y="0"
     inkscape:window-maximized="1"
     inkscape:current-layer="Layer_1" /><path
     style="fill:#ffffff"
     id="path3"
     d="m 1.1960548,6.8584704 c 0,-0.1424646 0.047494,-0.267116 0.148398,-0.3680268 C 1.445359,6.3954718 1.570018,6.347979 1.7006086,6.347979 l 1.2109274,0 c 0.1365298,0 0.2493072,0.047494 0.344283,0.1483979 0.089036,0.1009062 0.13653,0.2196289 0.13653,0.3620906 0,0.1424646 -0.041544,0.2611812 -0.1305952,0.3620919 -0.089036,0.1009061 -0.2077562,0.148398 -0.344283,0.148398 l -1.2109274,0 c -0.1365298,0 -0.2552436,-0.047494 -0.3561542,-0.148398 C 1.2494828,7.1196531 1.1960548,7.0009306 1.1960548,6.8584675 Z M 2.893727,10.972063 c 0,-0.13653 0.047494,-0.255245 0.13653,-0.362091 L 3.902836,9.7611351 c 0.089036,-0.094972 0.2077576,-0.1365298 0.3502194,-0.1365298 0.1424646,0 0.2611812,0.047494 0.3561556,0.1365298 0.094972,0.089036 0.1424648,0.2018215 0.1424648,0.3383469 0,0.142465 -0.047494,0.273052 -0.1424648,0.379899 l -0.8429006,0.842901 c -0.2433724,0.189949 -0.4867448,0.189949 -0.7301172,0 -0.094972,-0.09497 -0.1424646,-0.213694 -0.1424646,-0.350219 z m 0,-8.2153121 c 0,-0.1365254 0.047494,-0.2552443 0.13653,-0.3620907 0.1187258,-0.1009108 0.2433724,-0.1483979 0.3798978,-0.1483979 0.130595,0 0.2493086,0.047488 0.3502194,0.1424616 L 4.609211,3.2613043 c 0.094972,0.089036 0.1424648,0.2077562 0.1424648,0.3502194 0,0.1424646 -0.047494,0.2611798 -0.1424648,0.3561542 -0.094972,0.094972 -0.2136924,0.1424647 -0.3561556,0.1424647 -0.1424646,0 -0.2611798,-0.047494 -0.3502194,-0.1424647 L 3.0361932,3.1188426 C 2.9412218,3.023871 2.8937286,2.8992123 2.8937286,2.7567506 Z m 1.5136596,4.1017195 c 0,-0.5520394 0.1365298,-1.0684656 0.415514,-1.543338 C 5.1018892,4.8402587 5.4758522,4.4603593 5.9566608,4.1813722 6.437471,3.9023836 6.9479594,3.7658568 7.5000002,3.7658568 c 0.4155142,0 0.8132208,0.083102 1.1990554,0.2493086 0.3798988,0.1662068 0.7123104,0.3858356 0.9853625,0.6648228 0.2789881,0.2789885 0.4986169,0.6054644 0.6588869,0.9853637 0.16027,0.3798978 0.243372,0.7835408 0.243372,1.1990548 0,0.5579757 -0.136526,1.0744019 -0.415514,1.5492742 C 9.8921753,8.8885547 9.5182124,9.2625177 9.0433388,9.5415063 8.5684654,9.8204934 8.0520405,9.9570203 7.494064,9.9570203 6.9360884,9.9570203 6.4196636,9.8204905 5.9447898,9.5415063 5.469916,9.2625177 5.095953,8.8885547 4.8169644,8.4136809 4.5498484,7.9328723 4.4073866,7.4164476 4.4073866,6.8584704 Z m 1.009106,0 c 0,0.5817208 0.2018214,1.0744019 0.6113992,1.4839797 0.4036428,0.4095792 0.896324,0.6173354 1.4780448,0.6173354 0.5817195,0 1.0744008,-0.2077562 1.483979,-0.6173354 C 9.399494,7.9328723 9.6072512,7.4401912 9.6072512,6.8584704 9.6072512,6.2886222 9.399494,5.8018773 8.9899156,5.3922996 8.5803374,4.9886566 8.0876561,4.7868352 7.5059366,4.7868352 6.930152,4.7868352 6.437471,4.9886566 6.033828,5.3922996 5.618314,5.8018773 5.4164926,6.2886222 5.4164926,6.8584704 Z m 1.578954,4.6181446 c 0,-0.142465 0.047494,-0.26118 0.148398,-0.356155 0.1009061,-0.09497 0.2196288,-0.142464 0.3561556,-0.142464 0.1424648,0 0.2671162,0.04749 0.3620906,0.142464 0.094974,0.09497 0.1424632,0.213693 0.1424632,0.356155 l 0,1.181248 c 0,0.142465 -0.047488,0.267116 -0.1483987,0.368027 -0.1009061,0.100909 -0.2196288,0.148398 -0.3561542,0.148398 -0.13653,0 -0.2611798,-0.04749 -0.3561558,-0.148398 -0.1009061,-0.100908 -0.148398,-0.225565 -0.148398,-0.368027 l 0,-1.181248 z m 0,-9.2006731 0,-1.2109274 c 0,-0.13652543 0.047494,-0.25524453 0.148398,-0.35615507 0.1009061,-0.10091089 0.2196288,-0.15433397 0.362092,-0.15433397 0.1424646,0 0.2552434,0.0474877 0.3561542,0.14839798 0.1009109,0.1009109 0.1483982,0.21962893 0.1483982,0.35615506 l 0,1.2168634 c 0,0.1365254 -0.047488,0.2493085 -0.1483982,0.3442831 C 7.7611847,2.7151992 7.642462,2.7567504 7.5059366,2.7567504 7.3694068,2.7567504 7.2447554,2.7092568 7.1497808,2.620225 7.0548094,2.5311868 6.9954466,2.412468 6.9954466,2.2759419 Z m 3.2766274,7.8235401 c 0,-0.1365298 0.04749,-0.2493087 0.136525,-0.3324106 0.08904,-0.094972 0.201821,-0.1365298 0.332412,-0.1365298 0.142461,0 0.261181,0.047494 0.356155,0.1365298 l 0.866645,0.8488356 c 0.09497,0.100909 0.142461,0.225565 0.142461,0.362092 0,0.136529 -0.04749,0.255243 -0.142461,0.350217 -0.237438,0.184015 -0.474875,0.184015 -0.712311,0 l -0.842901,-0.842898 c -0.08904,-0.106841 -0.136525,-0.231502 -0.136525,-0.385836 z m 0,-6.4820232 c 0,-0.148398 0.04749,-0.2671161 0.136525,-0.350218 L 11.2515,2.3946602 c 0.100909,-0.094974 0.219628,-0.1424617 0.350219,-0.1424617 0.142462,0 0.261181,0.047488 0.356155,0.148398 0.100908,0.1009109 0.148398,0.219629 0.148398,0.3561548 0,0.148398 -0.04749,0.2730523 -0.142461,0.3680268 l -0.866645,0.8488368 c -0.106846,0.094972 -0.225565,0.1424647 -0.356155,0.1424647 -0.136525,0 -0.243373,-0.047494 -0.332411,-0.1424647 -0.08904,-0.094971 -0.136526,-0.2136925 -0.136526,-0.3561557 z m 1.341517,3.2410116 c 0,-0.1424646 0.04749,-0.2611798 0.142462,-0.3680268 0.09497,-0.094972 0.207758,-0.1424646 0.338348,-0.1424646 l 1.199055,0 c 0.13653,0 0.255244,0.053428 0.356155,0.1543342 0.100909,0.1009061 0.154334,0.2196288 0.154334,0.3561543 0,0.1365298 -0.05343,0.2552449 -0.154334,0.3561557 -0.100908,0.1009061 -0.219628,0.1483979 -0.356155,0.1483979 l -1.199055,0 c -0.136526,0 -0.255245,-0.047494 -0.344283,-0.1483979 C 11.661073,7.113717 11.61359,7.0009306 11.61359,6.8584675 Z"
     inkscape:connector-curvature="0" /><g
     style="fill:#ff00ff;fill-opacity:1;stroke:#ffffff;stroke-width:2;stroke-linecap:round;stroke-opacity:1;filter:url(#blur)"
     transform="matrix(0.59416638,0,0,0.59416638,-1.5346402,-0.90867964)"
     id="g4154"><path
       style="fill:#ff00ff;fill-opacity:1;stroke:#ffffff;stroke-opacity:1"
       inkscape:connector-curvature="0"
       d="m 11,32 34,0"
       id="path4156" /><path
       style="fill:#ff00ff;fill-opacity:1;stroke:#ffffff;stroke-opacity:1"
       inkscape:connector-curvature="0"
       d="m 15.5,37 25,0"
       id="path4158" /><path
       style="fill:#ff00ff;fill-opacity:1;stroke:#ffffff;stroke-opacity:1"
       inkscape:connector-curvature="0"
       d="m 22.5,42 11,0"
       id="path4160" /><path
       style="fill:#ff00ff;fill-opacity:1;stroke:#ffffff;stroke-opacity:1"
       inkscape:connector-curvature="0"
       d="M 28,31 28,9 m 0,13 11,-3.67 M 34,20 36,16 m -2,4 4,2 M 28,22 17,18.33 M 22,20 20,16 m 2,4 -4,2 m 10,-7.73 3.01,-3.02 M 28,14.27 24.99,11.25"
       id="path4162" /></g></svg>