<?xml version="1.0" encoding="UTF-8" standalone="no"?>
<!-- Generator: Adobe Illustrator 22.0.1, SVG Export Plug-In . SVG Version: 6.00 Build 0)  -->

<svg
   xmlns:dc="http://purl.org/dc/elements/1.1/"
   xmlns:cc="http://creativecommons.org/ns#"
   xmlns:rdf="http://www.w3.org/1999/02/22-rdf-syntax-ns#"
   xmlns:svg="http://www.w3.org/2000/svg"
   xmlns="http://www.w3.org/2000/svg"
   xmlns:sodipodi="http://sodipodi.sourceforge.net/DTD/sodipodi-0.dtd"
   xmlns:inkscape="http://www.inkscape.org/namespaces/inkscape"
   version="1.1"
   id="Layer_1"
   x="0px"
   y="0px"
   viewBox="0 0 30 30"
   style="enable-background:new 0 0 30 30;"
   xml:space="preserve"
   inkscape:version="0.91 r"
   sodipodi:docname="hurricane.svg"><metadata
     id="metadata9"><rdf:RDF><cc:Work
         rdf:about=""><dc:format>image/svg+xml</dc:format><dc:type
           rdf:resource="http://purl.org/dc/dcmitype/StillImage" /></cc:Work></rdf:RDF></metadata><defs
     id="defs7"><filter
       id="blur"
       x="-0.16994999"
       y="-0.17863999"
       width="1.3289"
       height="1.455"><feGaussianBlur
         in="SourceAlpha"
         stdDeviation="3"
         id="feGaussianBlur7" /><feOffset
         dx="0"
         dy="4"
         result="offsetblur"
         id="feOffset9" /><feComponentTransfer
         id="feComponentTransfer11"><feFuncA
           slope="0.05"
           type="linear"
           id="feFuncA13" /></feComponentTransfer><feMerge
         id="feMerge15"><feMergeNode
           id="feMergeNode17" /><feMergeNode
           in="SourceGraphic"
           id="feMergeNode19" /></feMerge></filter></defs><sodipodi:namedview
     pagecolor="#ffffff"
     bordercolor="#666666"
     borderopacity="1"
     objecttolerance="10"
     gridtolerance="10"
     guidetolerance="10"
     inkscape:pageopacity="0"
     inkscape:pageshadow="2"
     inkscape:window-width="640"
     inkscape:window-height="480"
     id="namedview5"
     showgrid="false"
     inkscape:zoom="7.8666667"
     inkscape:cx="10.550848"
     inkscape:cy="15"
     inkscape:window-x="0"
     inkscape:window-y="0"
     inkscape:window-maximized="0"
     inkscape:current-layer="Layer_1" /><path
     d="m 8.7276542,14.556121 0,-0.03204 c -0.01602,-0.128158 0,-0.320393 0,-0.592727 0.01602,-0.256315 0.064079,-0.688845 0.1601965,-1.297592 0.096118,-0.608747 0.2242751,-1.217494 0.4004912,-1.84226 0.1762162,-0.624766 0.4485503,-1.3456507 0.8170021,-2.1626529 0.368452,-0.8170022 0.800983,-1.5859454 1.313612,-2.3068297 0.512628,-0.7208843 1.185454,-1.4738079 2.018476,-2.2267315 0.833021,-0.7529236 1.762161,-1.425749 2.771399,-1.9864368 0.256315,-0.1441768 0.512629,-0.1762161 0.784963,-0.096118 0.272334,0.080098 0.48059,0.2402948 0.608747,0.4966092 0.144177,0.2563144 0.176216,0.5126288 0.09612,0.8009826 -0.0801,0.272334 -0.240295,0.4966091 -0.48059,0.6247664 -2.098574,1.1534148 -3.716559,2.7713996 -4.853954,4.8859935 0.865061,-0.4004913 1.730122,-0.6087467 2.611203,-0.6087467 1.714103,0 3.20393,0.6087467 4.437443,1.8422598 1.233514,1.233513 1.84226,2.707321 1.84226,4.421424 0,0.128157 0,0.256314 0,0.384471 0,0.128158 -0.03204,0.400492 -0.06408,0.833022 -0.03204,0.432531 -0.09612,0.833022 -0.176217,1.233513 -0.0801,0.400492 -0.208255,0.897101 -0.368451,1.489828 -0.176217,0.592727 -0.368452,1.169434 -0.608747,1.698083 -0.240295,0.528648 -0.544668,1.121375 -0.92914,1.762162 -0.384472,0.640786 -0.817002,1.233513 -1.297592,1.7942 -0.480589,0.560688 -1.057297,1.121376 -1.730122,1.682064 -0.688845,0.560688 -1.425749,1.073316 -2.226732,1.521867 -0.144176,0.09612 -0.320393,0.128157 -0.496609,0.128157 -0.416511,0 -0.720884,-0.192236 -0.929139,-0.560688 -0.144177,-0.256314 -0.176217,-0.512629 -0.09612,-0.784963 0.0801,-0.272334 0.240294,-0.480589 0.496609,-0.608747 2.146633,-1.201473 3.780637,-2.851497 4.902013,-4.934052 -0.865061,0.416511 -1.778181,0.608747 -2.73936,0.608747 -1.105356,0 -2.146634,-0.272334 -3.107813,-0.833022 C 10.922346,19.345997 10.169423,18.593073 9.5927153,17.631894 9.0320275,16.702754 8.7436738,15.677497 8.7276542,14.556121 Z m 2.7233408,-0.0801 c 0,0.977198 0.352432,1.81022 1.041277,2.515085 0.688845,0.688845 1.521867,1.041277 2.499066,1.041277 0.91312,0 1.698083,-0.304373 2.386928,-0.91312 0.672825,-0.608747 1.057297,-1.36167 1.169434,-2.258771 l 0.01602,-0.368452 c 0,-0.03204 0,-0.06408 0.01602,-0.0801 -0.01602,-0.961179 -0.368452,-1.778181 -1.057297,-2.434987 -0.688845,-0.672825 -1.537887,-0.993218 -2.515086,-0.993218 -0.8971,0 -1.666043,0.288354 -2.338869,0.865061 -0.672825,0.576707 -1.057297,1.313611 -1.169434,2.178673 l -0.03204,0.400491 0,0.04806 z"
     id="path3"
     inkscape:connector-curvature="0"
     style="fill:#ffffff" /><g
     style="filter:url(#blur)"
     id="g27"
     transform="matrix(0.6905687,0,0,0.6905687,16.381907,16.582684)"
     class="warning"><path
       style="fill:#cc0000"
       inkscape:connector-curvature="0"
       id="path29"
       d="M 7.7791,2.906 1.7879,13.023 c -0.56283,0.95042 -0.24862,2.1772 0.7018,2.74 0.30853,0.18271 0.66051,0.27911 1.0191,0.27911 l 11.982,0 c 1.1046,0 2,-0.89543 2,-2 0,-0.35857 -0.0964,-0.71056 -0.27911,-1.0191 l -5.9912,-10.117 c -0.56283,-0.95042 -1.7896,-1.2646 -2.74,-0.7018 -0.28918,0.17125 -0.53055,0.41262 -0.7018,0.7018 z" /><path
       style="stroke:#ffffff;stroke-width:1.5;stroke-linecap:round"
       inkscape:connector-curvature="0"
       id="path31"
       d="m 9.5,10.5 0,-5" /><circle
       style="fill:#ffffff"
       id="circle33"
       r="1"
       cy="13"
       cx="9.5" /></g></svg>