<?xml version="1.0" encoding="UTF-8" standalone="no"?>
<!-- Generator: Adobe Illustrator 22.0.1, SVG Export Plug-In . SVG Version: 6.00 Build 0)  -->

<svg
   xmlns:dc="http://purl.org/dc/elements/1.1/"
   xmlns:cc="http://creativecommons.org/ns#"
   xmlns:rdf="http://www.w3.org/1999/02/22-rdf-syntax-ns#"
   xmlns:svg="http://www.w3.org/2000/svg"
   xmlns="http://www.w3.org/2000/svg"
   xmlns:sodipodi="http://sodipodi.sourceforge.net/DTD/sodipodi-0.dtd"
   xmlns:inkscape="http://www.inkscape.org/namespaces/inkscape"
   version="1.1"
   id="Layer_1"
   x="0px"
   y="0px"
   viewBox="0 0 30 30"
   style="enable-background:new 0 0 30 30;"
   xml:space="preserve"
   inkscape:version="0.91 r"
   sodipodi:docname="isolated-thunderstormss.svg"><metadata
     id="metadata9"><rdf:RDF><cc:Work
         rdf:about=""><dc:format>image/svg+xml</dc:format><dc:type
           rdf:resource="http://purl.org/dc/dcmitype/StillImage" /><dc:title></dc:title></cc:Work></rdf:RDF></metadata><defs
     id="defs7"><clipPath
       clipPathUnits="userSpaceOnUse"
       id="clipPath4156"><path
         style="fill:none;fill-rule:evenodd;stroke:#000000;stroke-width:1px;stroke-linecap:butt;stroke-linejoin:miter;stroke-opacity:1"
         d="m 11.822034,14.427966 -1.334746,8.262712 0.06356,2.923729 c 0,0 3.622882,1.588983 4.004238,1.525424 0.381356,-0.06356 2.033898,-1.01695 2.097457,-1.398306 0.06356,-0.381356 2.86017,-7.881356 2.86017,-7.881356 l -0.444915,-2.73305 -1.461865,-1.080509 -3.68644,-0.444915 z"
         id="path4158"
         inkscape:connector-curvature="0" /></clipPath></defs><sodipodi:namedview
     pagecolor="#ffffff"
     bordercolor="#666666"
     borderopacity="1"
     objecttolerance="10"
     gridtolerance="10"
     guidetolerance="10"
     inkscape:pageopacity="0"
     inkscape:pageshadow="2"
     inkscape:window-width="773"
     inkscape:window-height="644"
     id="namedview5"
     showgrid="false"
     inkscape:zoom="15.733333"
     inkscape:cx="15.403059"
     inkscape:cy="9.9807991"
     inkscape:window-x="418"
     inkscape:window-y="31"
     inkscape:window-maximized="0"
     inkscape:current-layer="Layer_1" /><path
     d="M4.29,16.93c0,0.66,0.12,1.28,0.38,1.88s0.59,1.11,1.02,1.55s0.94,0.79,1.52,1.05s1.21,0.42,1.87,0.45  c0.12,0,0.18-0.06,0.18-0.17v-1.34c0-0.11-0.06-0.17-0.18-0.17c-0.87-0.06-1.6-0.41-2.19-1.03c-0.59-0.62-0.89-1.37-0.89-2.22  c0-0.84,0.28-1.57,0.85-2.18c0.57-0.62,1.26-0.97,2.1-1.04l0.52-0.06c0.12,0,0.19-0.06,0.19-0.18l0.08-0.52  c0.07-0.71,0.3-1.36,0.69-1.94s0.9-1.04,1.52-1.36s1.29-0.49,2.02-0.49c1.09,0,2.04,0.36,2.85,1.08c0.81,0.72,1.27,1.62,1.39,2.69  l0.07,0.58c0,0.11,0.06,0.17,0.19,0.17h1.6c0.9,0,1.67,0.32,2.32,0.96c0.64,0.64,0.97,1.4,0.97,2.29c0,0.86-0.3,1.6-0.89,2.22  c-0.59,0.62-1.33,0.97-2.19,1.03c-0.13,0-0.2,0.06-0.2,0.17v1.34c0,0.11,0.07,0.17,0.2,0.17c1.34-0.06,2.47-0.57,3.38-1.51  C24.54,19.4,25,18.26,25,16.93c0-0.64-0.16-1.32-0.47-2.06c0.79-0.99,1.19-2.08,1.19-3.27c0-0.95-0.24-1.83-0.71-2.63  c-0.47-0.81-1.11-1.44-1.91-1.91s-1.68-0.7-2.62-0.7c-1.59,0-2.88,0.58-3.87,1.73c-0.81-0.43-1.7-0.64-2.66-0.64  c-1.41,0-2.66,0.44-3.75,1.32s-1.79,2-2.1,3.37c-1.12,0.26-2.03,0.83-2.74,1.72C4.64,14.75,4.29,15.77,4.29,16.93z M11.94,21.55  c-0.02,0.14,0.02,0.21,0.14,0.21h2.17l-1.32,4.17h0.29l4.18-5.58c0.04-0.04,0.05-0.09,0.02-0.14s-0.07-0.07-0.14-0.07H15.1l2.3-4.24  c0.07-0.14,0.03-0.22-0.14-0.22h-2.94c-0.08,0-0.14,0.05-0.21,0.14L11.94,21.55z M18,9.05c0.67-0.66,1.49-0.99,2.47-0.99  c0.98,0,1.81,0.34,2.5,1.03C23.66,9.77,24,10.61,24,11.6c0,0.59-0.17,1.19-0.52,1.8c-0.97-0.93-2.12-1.4-3.45-1.4h-0.31  C19.44,10.81,18.86,9.83,18,9.05z"
     id="path3"
     style="fill:#ffffff"
     clip-path="url(#clipPath4156)" /><path
     style="fill:#ffffff"
     id="path3-5"
     d="m 4.7471188,16.179492 c 0,1.33 0.46,2.48 1.39,3.43 0.93,0.96 2.06,1.47 3.4,1.53 0.11,0 0.17,-0.06 0.17,-0.17 l 0,-1.33 c 0,-0.12 -0.06,-0.19 -0.17,-0.19 -0.86,-0.04 -1.58,-0.38 -2.18,-1.02 -0.6,-0.64 -0.9,-1.39 -0.9,-2.25 0,-0.82 0.28,-1.54 0.84,-2.16 0.56,-0.61 1.26,-0.97 2.1,-1.07 l 0.53,0 c 0.1300002,0 0.2000002,-0.06 0.2000002,-0.18 l 0.06,-0.57 c 0.11,-1.08 0.57,-1.99 1.38,-2.72 0.81,-0.730001 1.77,-1.100001 2.86,-1.100001 1.08,0 2.03,0.37 2.85,1.100001 0.82,0.73 1.28,1.64 1.39,2.72 0.06927,1.152732 0.818706,0.75 1.87,0.75 0.89,0 1.66,0.32 2.31,0.96 0.65,0.64 0.98,1.4 0.98,2.26 0,0.86 -0.3,1.61 -0.9,2.25 -0.6,0.64 -1.33,0.98 -2.18,1.02 -0.13,0 -0.2,0.06 -0.2,0.19 l 0,1.33 c 0,0.11 0.07,0.17 0.2,0.17 0.87,-0.02 1.67,-0.26 2.4,-0.71 0.73,-0.45 1.31,-1.05 1.73,-1.8 0.42,-0.75 0.63,-1.57 0.63,-2.44 0,-0.67 -0.13,-1.31 -0.39,-1.91 -0.26,-0.61 -0.62,-1.13 -1.06,-1.57 -0.44,-0.44 -0.97,-0.79 -1.58,-1.05 -0.61,-0.26 -1.25,-0.39 -1.92,-0.39 l -0.32,0 c -0.33,-1.34 -1.03,-2.430001 -2.11,-3.290001 -1.07,-0.85 -2.3,-1.279999 -3.68,-1.279999 -1.41,0 -2.67,0.439999 -3.76,1.319999 -1.0900002,0.88 -1.7900002,2.000001 -2.1000002,3.360001 -1.11,0.26 -2.02,0.83 -2.73,1.73 -0.76,0.91 -1.11,1.93 -1.11,3.08 z"
     inkscape:connector-curvature="0"
     sodipodi:nodetypes="sccsscssccsccsssccssscsscssscsssccssccs" /></svg>