<?xml version="1.0" encoding="UTF-8" standalone="no"?>
<!-- Created with Inkscape (http://www.inkscape.org/) -->

<svg
   xmlns:dc="http://purl.org/dc/elements/1.1/"
   xmlns:cc="http://creativecommons.org/ns#"
   xmlns:rdf="http://www.w3.org/1999/02/22-rdf-syntax-ns#"
   xmlns:svg="http://www.w3.org/2000/svg"
   xmlns="http://www.w3.org/2000/svg"
   xmlns:sodipodi="http://sodipodi.sourceforge.net/DTD/sodipodi-0.dtd"
   xmlns:inkscape="http://www.inkscape.org/namespaces/inkscape"
   id="svg2"
   version="1.1"
   inkscape:version="0.91 r"
   width="48"
   height="48"
   viewBox="0 0 48 48"
   sodipodi:docname="location.svg">
  <metadata
     id="metadata8">
    <rdf:RDF>
      <cc:Work
         rdf:about="">
        <dc:format>image/svg+xml</dc:format>
        <dc:type
           rdf:resource="http://purl.org/dc/dcmitype/StillImage" />
        <dc:title></dc:title>
      </cc:Work>
    </rdf:RDF>
  </metadata>
  <defs
     id="defs6">
    <clipPath
       clipPathUnits="userSpaceOnUse"
       id="clipPath4211">
      <circle
         r="150.52242"
         cy="211.52541"
         cx="-290.84744"
         id="circle4213"
         style="opacity:1;fill:#1f81c2;fill-opacity:1;stroke:#ffffff;stroke-width:0.17210896;stroke-linejoin:round;stroke-miterlimit:4;stroke-dasharray:none;stroke-opacity:1" />
    </clipPath>
  </defs>
  <sodipodi:namedview
     pagecolor="#ffffff"
     bordercolor="#666666"
     borderopacity="1"
     objecttolerance="10"
     gridtolerance="10"
     guidetolerance="10"
     inkscape:pageopacity="0"
     inkscape:pageshadow="2"
     inkscape:window-width="1366"
     inkscape:window-height="699"
     id="namedview4"
     showgrid="false"
     inkscape:zoom="1.9666667"
     inkscape:cx="129.24114"
     inkscape:cy="18.478194"
     inkscape:window-x="0"
     inkscape:window-y="0"
     inkscape:window-maximized="1"
     inkscape:current-layer="svg2" />
  <g
     style="fill:none;fill-rule:nonzero;stroke:none;stroke-width:1"
     id="map-(1)"
     transform="matrix(0.90964357,0,0,0.90964357,1.7137485,4.0642812)">
    <g
       style="fill:#44c868"
       id="Group"
       transform="translate(12.537109,15.695312)">
      <path
         inkscape:connector-curvature="0"
         d="M 36.45131,27.245244 32.601748,6.0363789 C 32.563371,5.8246836 32.432066,5.6413164 32.243914,5.5367129 L 22.554738,0.14766992 C 22.428984,0.07761523 22.288014,0.04976562 22.149531,0.06048437 l 1.762756,22.73982763 -0.05905,0.02642 11.595774,5.202134 c 0.09436,0.0422 0.19466,0.06307 0.294478,0.06307 0.158006,0 0.314576,-0.05197 0.443297,-0.152743 0.210356,-0.164226 0.312088,-0.431429 0.264523,-0.693943 z"
         id="Shape" />
      <path
         inkscape:connector-curvature="0"
         d="M 11.962891,5.2995605 2.0533106,0.13819531 C 1.934543,0.07627539 1.8028555,0.05100977 1.6731777,0.05971875 c 0.034357,-0.0021055 0.068906,-0.0019141 0.103168,7.6562e-4 L 0.01358984,22.800312 11.668412,28.028957 c 0.09408,0.04211 0.194469,0.06307 0.294479,0.06307 l 0,-22.7924645 z"
         id="path4266" />
    </g>
    <g
       style="fill:#4ce166"
       id="g4268"
       transform="translate(0,15.695312)">
      <path
         inkscape:connector-curvature="0"
         d="M 14.313359,0.06058008 C 14.174877,0.04986133 14.033906,0.07771094 13.908152,0.14766992 L 4.2188809,5.5367129 C 4.0307285,5.6413164 3.8994238,5.8245879 3.8610469,6.0363789 L 0.01158008,27.245244 c -0.04766016,0.262418 0.05416797,0.529621 0.26442773,0.694039 0.12891211,0.100776 0.28538672,0.152742 0.44329688,0.152742 0.0998184,0 0.20021093,-0.02077 0.29447851,-0.06307 L 12.546393,22.85515 14.313359,0.06058008 Z"
         id="path4270" />
      <path
         inkscape:connector-curvature="0"
         d="M 34.686545,0.06010156 C 34.591225,0.0674707 34.496957,0.09283203 34.40958,0.13838672 L 24.5,5.2996562 l 0,22.7924648 c 0,0 0,0 0,0 0.100106,0 0.200594,-0.02086 0.294574,-0.06307 L 36.449396,22.800408 34.686545,0.06010156 Z"
         id="path4272" />
    </g>
    <polygon
       style="fill:#ffdb56"
       id="polygon4274"
       points="2.6944258,28.159018 1.9124356,32.467477 13.49194,26.351473 13.76077,22.883287 13.805367,22.308111 " />
    <path
       style="fill:#a8eefc"
       inkscape:connector-curvature="0"
       d="m 13.59616,25.006652 -0.10422,1.344821 -11.5795044,6.116004 -1.90085552,10.47308 c -0.04766016,0.262418 0.05416797,0.529621 0.26442773,0.694039 0.12891211,0.100775 0.28538672,0.152742 0.44329688,0.152742 0.0998184,0 0.20021093,-0.02077 0.29447851,-0.06307 L 12.546393,38.550463 13.59616,25.006652 Z"
       id="path4276" />
    <g
       style="fill:#ffbb24"
       id="g4278"
       transform="translate(13.398438,18.183594)">
      <polygon
         id="polygon4280"
         points="0.40692969,4.1245176 0.093501953,8.1678789 11.101562,24.885205 11.101562,18.806334 4.5327871,8.4629316 11.104434,9.2489414 11.104434,5.6541406 " />
      <polygon
         id="polygon4282"
         points="30.619832,2.6242754 25.965311,0.035410156 21.558947,1.0649844 21.614072,1.7766328 21.831701,4.5839883 " />
    </g>
    <polygon
       style="fill:#ffdb56"
       id="polygon4284"
       points="35.203629,22.425826 35.203629,22.425826 34.957385,19.248578 24.502871,23.837734 24.502871,27.432535 31.331863,24.462867 35.620894,27.809031 " />
    <path
       style="fill:#ffbb24"
       inkscape:connector-curvature="0"
       d="M 48.98842,42.940557 48.021531,37.613146 35.230139,22.767582 35.62099,27.809031 48.739018,43.621197 c 0.199445,-0.165279 0.295818,-0.424826 0.249402,-0.68064 z"
       id="path4286" />
    <path
       style="fill:#ff4a4a"
       inkscape:connector-curvature="0"
       d="m 24.546033,0.04450195 c -5.54724,0 -10.060312,4.50933985 -10.060312,10.05208205 0,3.42866 1.627814,7.109785 4.838367,10.940973 2.358029,2.813959 4.683998,4.6238 4.781902,4.699502 0.129582,0.100201 0.284813,0.150253 0.440139,0.150253 0.15523,0 0.310556,-0.05005 0.440139,-0.150253 0.09781,-0.0757 2.423873,-1.885543 4.781902,-4.699502 3.210553,-3.831188 4.838367,-7.512217 4.838367,-10.940973 C 34.606346,4.5538418 30.093273,0.04450195 24.546033,0.04450195 Z M 28.271756,10.096488 c 0,2.055895 -1.668106,3.72266 -3.725723,3.72266 -2.057617,0 -3.725722,-1.666669 -3.725722,-3.72266 0,-2.0559899 1.668105,-3.7226599 3.725722,-3.7226599 2.057617,0 3.725723,1.6667656 3.725723,3.7226599 z"
       id="path4288" />
    <path
       style="fill:#e7343f"
       inkscape:connector-curvature="0"
       d="m 24.546033,0.04450195 c -0.43966,0 -0.872717,0.02851953 -1.297639,0.08345313 4.936655,0.63805273 8.76277,4.86516402 8.76277,9.96862892 0,3.42866 -1.627814,7.109785 -4.838367,10.940973 -1.516416,1.809554 -3.018477,3.202896 -3.924307,3.987853 0.502824,0.435641 0.822664,0.68466 0.8575,0.711649 0.129582,0.100201 0.284813,0.150253 0.440139,0.150253 0.15523,0 0.310556,-0.05005 0.440139,-0.150253 0.09781,-0.0757 2.423873,-1.885543 4.781902,-4.699502 3.210553,-3.831188 4.838367,-7.512217 4.838367,-10.940973 C 34.606346,4.5538418 30.093273,0.04450195 24.546033,0.04450195 Z"
       id="path4290" />
    <path
       style="fill:#ffdb56"
       inkscape:connector-curvature="0"
       d="M 24.794574,43.724269 29.12849,41.779965 24.5,36.989928 l 0,6.79741 c 0,0 0,0 9.6e-5,0 0.10001,0 0.200402,-0.02077 0.294478,-0.06307 z"
       id="path4292" />
    <g
       style="fill:#1ea4e9"
       id="g4294"
       transform="translate(12.537109,20.767578)">
      <path
         inkscape:connector-curvature="0"
         d="M 32.601652,0.96411328 C 32.563275,0.75241797 32.431971,0.56905078 32.243818,0.46444727 L 31.481064,0.04019531 22.692934,1.9999082 35.484231,16.845473 32.601652,0.96411328 Z"
         id="path4296" />
      <path
         inkscape:connector-curvature="0"
         d="m 11.962867,23.01976 c 0,0 0,0 0,0 L 11.962795,22.301221 0.95483008,5.5838945 0.01339844,17.728143 11.668221,22.956787 c 0.09408,0.04221 0.194469,0.06297 0.294646,0.06297 z"
         id="path4298" />
    </g>
  </g>
</svg>
