<?xml version="1.0" encoding="UTF-8" standalone="no"?>
<!-- Generator: Adobe Illustrator 22.0.1, SVG Export Plug-In . SVG Version: 6.00 Build 0)  -->

<svg
   xmlns:dc="http://purl.org/dc/elements/1.1/"
   xmlns:cc="http://creativecommons.org/ns#"
   xmlns:rdf="http://www.w3.org/1999/02/22-rdf-syntax-ns#"
   xmlns:svg="http://www.w3.org/2000/svg"
   xmlns="http://www.w3.org/2000/svg"
   xmlns:sodipodi="http://sodipodi.sourceforge.net/DTD/sodipodi-0.dtd"
   xmlns:inkscape="http://www.inkscape.org/namespaces/inkscape"
   version="1.1"
   id="Layer_1"
   x="0px"
   y="0px"
   viewBox="0 0 30 30"
   style="enable-background:new 0 0 30 30;"
   xml:space="preserve"
   inkscape:version="0.91 r"
   sodipodi:docname="haze-night.svg"><metadata
     id="metadata9"><rdf:RDF><cc:Work
         rdf:about=""><dc:format>image/svg+xml</dc:format><dc:type
           rdf:resource="http://purl.org/dc/dcmitype/StillImage" /><dc:title /></cc:Work></rdf:RDF></metadata><defs
     id="defs7"><clipPath
       clipPathUnits="userSpaceOnUse"
       id="clipPath4137"><path
         style="fill:none;fill-rule:evenodd;stroke:#000000;stroke-width:1px;stroke-linecap:butt;stroke-linejoin:miter;stroke-opacity:1"
         d="m -33.432203,19.194915 18.559322,-0.508474 0.762712,5.211864 -5.720339,1.779661 -11.059323,0 -3.559322,-2.288135 z"
         id="path4139"
         inkscape:connector-curvature="0" /></clipPath></defs><sodipodi:namedview
     pagecolor="#ffffff"
     bordercolor="#666666"
     borderopacity="1"
     objecttolerance="10"
     gridtolerance="10"
     guidetolerance="10"
     inkscape:pageopacity="0"
     inkscape:pageshadow="2"
     inkscape:window-width="904"
     inkscape:window-height="659"
     id="namedview5"
     showgrid="false"
     inkscape:zoom="7.8666667"
     inkscape:cx="16.779661"
     inkscape:cy="15"
     inkscape:window-x="259"
     inkscape:window-y="40"
     inkscape:window-maximized="0"
     inkscape:current-layer="Layer_1" /><path
     style="fill:#ffffff;fill-opacity:1"
     id="path4133"
     d="m -34.528305,17.781017 c 0,-0.24 0.08,-0.44 0.25,-0.61 0.18,-0.17 0.38,-0.25 0.6,-0.25 l 2.04,0 c 0.23,0 0.42,0.08 0.58,0.25 0.15,0.17 0.23,0.37 0.23,0.61 0,0.24 -0.08,0.44 -0.23,0.6 -0.15,0.17 -0.35,0.25 -0.58,0.25 l -2.03,0 c -0.23,0 -0.43,-0.08 -0.6,-0.25 -0.17,-0.17 -0.26,-0.37 -0.26,-0.6 z m 2.86,-6.91 c 0,-0.23 0.08,-0.43 0.23,-0.61 0.2,-0.17 0.41,-0.25 0.64,-0.25 0.21,0 0.41,0.08 0.59,0.25 l 1.43,1.46 c 0.16,0.15 0.24,0.35 0.24,0.59 0,0.24 -0.08,0.44 -0.24,0.6 -0.16,0.16 -0.36,0.24 -0.6,0.24 -0.24,0 -0.44,-0.08 -0.59,-0.24 l -1.46,-1.43 c -0.16,-0.17 -0.24,-0.37 -0.24,-0.61 z m 0.16,9.31 c 0,-0.22 0.08,-0.41 0.23,-0.55 0.16,-0.14 0.37,-0.22 0.64,-0.22 l 5.71,0 c 0.27,0 0.48,0.07 0.64,0.22 0.16,0.14 0.24,0.33 0.24,0.55 0,0.27 -0.08,0.48 -0.23,0.64 -0.16,0.16 -0.37,0.24 -0.65,0.24 l -5.71,0 c -0.27,0 -0.48,-0.08 -0.64,-0.23 -0.16,-0.15 -0.23,-0.38 -0.23,-0.65 z m 0.99,2.95 c 0,-0.22 0.09,-0.42 0.28,-0.6 0.18,-0.18 0.39,-0.27 0.6,-0.27 0.26,0 0.47,0.09 0.63,0.26 0.16,0.18 0.24,0.38 0.24,0.61 0,0.28 -0.08,0.49 -0.23,0.65 -0.15,0.16 -0.37,0.23 -0.64,0.23 -0.23,0 -0.44,-0.08 -0.61,-0.24 -0.18,-0.16 -0.27,-0.38 -0.27,-0.64 z m 1.41,-5.06 0,-0.07 c 0.03,-1.26 0.47,-2.35 1.31,-3.28 0.84,-0.93 1.87,-1.49 3.1,-1.69 l 0.05,0 c 0.19,-0.04 0.45,-0.06 0.76,-0.06 0.31,0 0.57,0.02 0.76,0.06 l 0.04,0 c 1.22,0.19 2.26,0.76 3.1,1.69 0.84,0.93 1.28,2.02 1.31,3.28 l 0,0.07 c 0,0.16 -0.08,0.24 -0.23,0.24 l -1.13,0 c -0.12,0 -0.2,-0.03 -0.25,-0.09 -0.05,-0.06 -0.07,-0.12 -0.07,-0.18 -0.04,-0.93 -0.4,-1.72 -1.08,-2.37 -0.68,-0.65 -1.49,-0.97 -2.44,-0.97 -0.95,0 -1.76,0.32 -2.44,0.97 -0.68,0.65 -1.04,1.44 -1.08,2.37 0,0.06 -0.03,0.12 -0.08,0.18 -0.05,0.06 -0.14,0.09 -0.26,0.09 l -1.13,0 c -0.16,0 -0.24,-0.08 -0.24,-0.24 z m 1.01,5.06 c 0,-0.23 0.08,-0.43 0.24,-0.61 0.16,-0.17 0.37,-0.26 0.63,-0.26 l 3.83,0 c 0.22,0 0.42,0.09 0.6,0.27 0.18,0.18 0.28,0.38 0.28,0.6 0,0.26 -0.09,0.48 -0.27,0.64 -0.18,0.16 -0.38,0.24 -0.61,0.24 l -3.83,0 c -0.27,0 -0.48,-0.08 -0.64,-0.23 -0.16,-0.16 -0.23,-0.37 -0.23,-0.65 z m 3.34,-13.08 0,-2.0300001 c 0,-0.24 0.08,-0.44 0.25,-0.61 0.17,-0.17 0.37,-0.25 0.61,-0.25 0.24,0 0.43,0.08 0.6,0.25 0.17,0.17 0.25,0.37 0.25,0.61 l 0,2.0300001 c 0,0.23 -0.08,0.43 -0.25,0.58 -0.17,0.15 -0.37,0.24 -0.6,0.24 -0.23,0 -0.44,-0.08 -0.6,-0.23 -0.16,-0.15 -0.26,-0.36 -0.26,-0.59 z m 1.36,10.13 c 0,-0.21 0.09,-0.39 0.27,-0.54 0.18,-0.15 0.38,-0.23 0.61,-0.23 0.23,0 0.43,0.08 0.61,0.23 0.18,0.15 0.27,0.33 0.27,0.54 0,0.26 -0.09,0.48 -0.27,0.64 -0.18,0.16 -0.38,0.24 -0.61,0.24 -0.23,0 -0.44,-0.08 -0.61,-0.24 -0.18,-0.17 -0.27,-0.38 -0.27,-0.64 z m 1.54,2.95 c 0,-0.23 0.08,-0.43 0.24,-0.61 0.16,-0.17 0.38,-0.26 0.64,-0.26 l 1.86,0 c 0.26,0 0.47,0.09 0.63,0.26 0.16,0.18 0.24,0.38 0.24,0.61 0,0.28 -0.08,0.49 -0.23,0.65 -0.15,0.16 -0.37,0.23 -0.64,0.23 l -1.86,0 c -0.27,0 -0.48,-0.08 -0.64,-0.23 -0.16,-0.16 -0.24,-0.37 -0.24,-0.65 z m 0.88,-2.95 c 0,-0.21 0.09,-0.39 0.27,-0.54 0.18,-0.15 0.38,-0.23 0.6,-0.23 l 3.07,0 c 0.22,0 0.4,0.07 0.54,0.22 0.14,0.15 0.22,0.33 0.22,0.55 0,0.27 -0.07,0.48 -0.21,0.64 -0.14,0.16 -0.32,0.24 -0.55,0.24 l -3.07,0 c -0.23,0 -0.43,-0.08 -0.61,-0.24 -0.17,-0.17 -0.26,-0.38 -0.26,-0.64 z m 1.74,-7.87 c 0,-0.25 0.08,-0.45 0.23,-0.59 l 1.42,-1.46 c 0.18,-0.17 0.38,-0.25 0.59,-0.25 0.23,0 0.43,0.08 0.6,0.25 0.17,0.17 0.25,0.37 0.25,0.61 0,0.24 -0.08,0.45 -0.24,0.61 l -1.46,1.42 c -0.18,0.16 -0.38,0.24 -0.6,0.24 -0.23,0 -0.41,-0.08 -0.56,-0.24 -0.15,-0.15 -0.23,-0.35 -0.23,-0.59 z m 2.26,5.47 c 0,-0.23 0.08,-0.43 0.24,-0.61 0.17,-0.17 0.36,-0.25 0.57,-0.25 l 2.02,0 c 0.23,0 0.43,0.09 0.6,0.26 0.17,0.17 0.26,0.37 0.26,0.6 0,0.23 -0.09,0.43 -0.26,0.6 -0.17,0.17 -0.37,0.25 -0.6,0.25 l -2.02,0 c -0.23,0 -0.43,-0.08 -0.58,-0.25 -0.15,-0.17 -0.23,-0.36 -0.23,-0.6 z"
     inkscape:connector-curvature="0"
     clip-path="url(#clipPath4137)"
     transform="matrix(1.263473,0,0,-1.263473,47.065107,50.219918)" /><path
     style="fill:#ffffff"
     id="path3"
     d="m 6.2823405,8.7711861 c 0,-0.96 0.19,-1.87 0.56,-2.75 0.37,-0.88 0.8799999,-1.63 1.5099999,-2.26 0.63,-0.63 1.39,-1.14 2.2699996,-1.52 0.88,-0.38 1.8,-0.5699997 2.75,-0.5699997 l 1.14,0 c 0.16,0.04 0.23,0.1399997 0.23,0.2799997 l 0.05,0.88 c 0.04,1.27 0.49,2.35 1.37,3.24 0.88,0.89 1.94,1.37 3.19,1.42 l 0.82,0.07 c 0.16,0 0.24,0.08 0.24,0.23 l 0,0.98 c 0.01,1.2799999 -0.3,2.4699999 -0.93,3.5599999 -0.63,1.09 -1.48,1.95 -2.57,2.59 -1.08,0.63 -2.27,0.95 -3.55,0.95 -0.97,0 -1.9,-0.19 -2.78,-0.56 -0.8799996,-0.37 -1.6299996,-0.88 -2.2599996,-1.51 -0.63,-0.63 -1.1299999,-1.39 -1.4999999,-2.26 -0.35,-0.88 -0.54,-1.7999999 -0.54,-2.7699999 z m 1.8299999,0 c 0,0.76 0.15,1.4799999 0.45,2.1599999 0.3,0.67 0.7,1.24 1.19,1.7 0.4899996,0.46 1.0499996,0.82 1.6899996,1.08 0.63,0.27 1.28,0.4 1.94,0.4 0.58,0 1.17,-0.11 1.76,-0.34 0.59,-0.23 1.14,-0.55 1.65,-0.96 0.51,-0.41 0.94,-0.93 1.31,-1.57 0.37,-0.64 0.6,-1.3299999 0.71,-2.0899999 -1.63,-0.34 -2.94,-1.04 -3.92,-2.1 -0.98,-1.06 -1.55,-2.3 -1.7,-3.74 -0.96,0.06 -1.82,0.35 -2.61,0.88 -0.7799996,0.53 -1.3899996,1.2 -1.8199996,2.02 -0.43,0.82 -0.65,1.67 -0.65,2.56 z"
     inkscape:connector-curvature="0" /><path
     transform="matrix(-1.263473,0,0,-1.263473,-15.412564,42.992423)"
     clip-path="url(#clipPath4137)"
     inkscape:connector-curvature="0"
     d="m -34.528305,17.781017 c 0,-0.24 0.08,-0.44 0.25,-0.61 0.18,-0.17 0.38,-0.25 0.6,-0.25 l 2.04,0 c 0.23,0 0.42,0.08 0.58,0.25 0.15,0.17 0.23,0.37 0.23,0.61 0,0.24 -0.08,0.44 -0.23,0.6 -0.15,0.17 -0.35,0.25 -0.58,0.25 l -2.03,0 c -0.23,0 -0.43,-0.08 -0.6,-0.25 -0.17,-0.17 -0.26,-0.37 -0.26,-0.6 z m 2.86,-6.91 c 0,-0.23 0.08,-0.43 0.23,-0.61 0.2,-0.17 0.41,-0.25 0.64,-0.25 0.21,0 0.41,0.08 0.59,0.25 l 1.43,1.46 c 0.16,0.15 0.24,0.35 0.24,0.59 0,0.24 -0.08,0.44 -0.24,0.6 -0.16,0.16 -0.36,0.24 -0.6,0.24 -0.24,0 -0.44,-0.08 -0.59,-0.24 l -1.46,-1.43 c -0.16,-0.17 -0.24,-0.37 -0.24,-0.61 z m 0.16,9.31 c 0,-0.22 0.08,-0.41 0.23,-0.55 0.16,-0.14 0.37,-0.22 0.64,-0.22 l 5.71,0 c 0.27,0 0.48,0.07 0.64,0.22 0.16,0.14 0.24,0.33 0.24,0.55 0,0.27 -0.08,0.48 -0.23,0.64 -0.16,0.16 -0.37,0.24 -0.65,0.24 l -5.71,0 c -0.27,0 -0.48,-0.08 -0.64,-0.23 -0.16,-0.15 -0.23,-0.38 -0.23,-0.65 z m 0.99,2.95 c 0,-0.22 0.09,-0.42 0.28,-0.6 0.18,-0.18 0.39,-0.27 0.6,-0.27 0.26,0 0.47,0.09 0.63,0.26 0.16,0.18 0.24,0.38 0.24,0.61 0,0.28 -0.08,0.49 -0.23,0.65 -0.15,0.16 -0.37,0.23 -0.64,0.23 -0.23,0 -0.44,-0.08 -0.61,-0.24 -0.18,-0.16 -0.27,-0.38 -0.27,-0.64 z m 1.41,-5.06 0,-0.07 c 0.03,-1.26 0.47,-2.35 1.31,-3.28 0.84,-0.93 1.87,-1.49 3.1,-1.69 l 0.05,0 c 0.19,-0.04 0.45,-0.06 0.76,-0.06 0.31,0 0.57,0.02 0.76,0.06 l 0.04,0 c 1.22,0.19 2.26,0.76 3.1,1.69 0.84,0.93 1.28,2.02 1.31,3.28 l 0,0.07 c 0,0.16 -0.08,0.24 -0.23,0.24 l -1.13,0 c -0.12,0 -0.2,-0.03 -0.25,-0.09 -0.05,-0.06 -0.07,-0.12 -0.07,-0.18 -0.04,-0.93 -0.4,-1.72 -1.08,-2.37 -0.68,-0.65 -1.49,-0.97 -2.44,-0.97 -0.95,0 -1.76,0.32 -2.44,0.97 -0.68,0.65 -1.04,1.44 -1.08,2.37 0,0.06 -0.03,0.12 -0.08,0.18 -0.05,0.06 -0.14,0.09 -0.26,0.09 l -1.13,0 c -0.16,0 -0.24,-0.08 -0.24,-0.24 z m 1.01,5.06 c 0,-0.23 0.08,-0.43 0.24,-0.61 0.16,-0.17 0.37,-0.26 0.63,-0.26 l 3.83,0 c 0.22,0 0.42,0.09 0.6,0.27 0.18,0.18 0.28,0.38 0.28,0.6 0,0.26 -0.09,0.48 -0.27,0.64 -0.18,0.16 -0.38,0.24 -0.61,0.24 l -3.83,0 c -0.27,0 -0.48,-0.08 -0.64,-0.23 -0.16,-0.16 -0.23,-0.37 -0.23,-0.65 z m 3.34,-13.08 0,-2.0300001 c 0,-0.24 0.08,-0.44 0.25,-0.61 0.17,-0.17 0.37,-0.25 0.61,-0.25 0.24,0 0.43,0.08 0.6,0.25 0.17,0.17 0.25,0.37 0.25,0.61 l 0,2.0300001 c 0,0.23 -0.08,0.43 -0.25,0.58 -0.17,0.15 -0.37,0.24 -0.6,0.24 -0.23,0 -0.44,-0.08 -0.6,-0.23 -0.16,-0.15 -0.26,-0.36 -0.26,-0.59 z m 1.36,10.13 c 0,-0.21 0.09,-0.39 0.27,-0.54 0.18,-0.15 0.38,-0.23 0.61,-0.23 0.23,0 0.43,0.08 0.61,0.23 0.18,0.15 0.27,0.33 0.27,0.54 0,0.26 -0.09,0.48 -0.27,0.64 -0.18,0.16 -0.38,0.24 -0.61,0.24 -0.23,0 -0.44,-0.08 -0.61,-0.24 -0.18,-0.17 -0.27,-0.38 -0.27,-0.64 z m 1.54,2.95 c 0,-0.23 0.08,-0.43 0.24,-0.61 0.16,-0.17 0.38,-0.26 0.64,-0.26 l 1.86,0 c 0.26,0 0.47,0.09 0.63,0.26 0.16,0.18 0.24,0.38 0.24,0.61 0,0.28 -0.08,0.49 -0.23,0.65 -0.15,0.16 -0.37,0.23 -0.64,0.23 l -1.86,0 c -0.27,0 -0.48,-0.08 -0.64,-0.23 -0.16,-0.16 -0.24,-0.37 -0.24,-0.65 z m 0.88,-2.95 c 0,-0.21 0.09,-0.39 0.27,-0.54 0.18,-0.15 0.38,-0.23 0.6,-0.23 l 3.07,0 c 0.22,0 0.4,0.07 0.54,0.22 0.14,0.15 0.22,0.33 0.22,0.55 0,0.27 -0.07,0.48 -0.21,0.64 -0.14,0.16 -0.32,0.24 -0.55,0.24 l -3.07,0 c -0.23,0 -0.43,-0.08 -0.61,-0.24 -0.17,-0.17 -0.26,-0.38 -0.26,-0.64 z m 1.74,-7.87 c 0,-0.25 0.08,-0.45 0.23,-0.59 l 1.42,-1.46 c 0.18,-0.17 0.38,-0.25 0.59,-0.25 0.23,0 0.43,0.08 0.6,0.25 0.17,0.17 0.25,0.37 0.25,0.61 0,0.24 -0.08,0.45 -0.24,0.61 l -1.46,1.42 c -0.18,0.16 -0.38,0.24 -0.6,0.24 -0.23,0 -0.41,-0.08 -0.56,-0.24 -0.15,-0.15 -0.23,-0.35 -0.23,-0.59 z m 2.26,5.47 c 0,-0.23 0.08,-0.43 0.24,-0.61 0.17,-0.17 0.36,-0.25 0.57,-0.25 l 2.02,0 c 0.23,0 0.43,0.09 0.6,0.26 0.17,0.17 0.26,0.37 0.26,0.6 0,0.23 -0.09,0.43 -0.26,0.6 -0.17,0.17 -0.37,0.25 -0.6,0.25 l -2.02,0 c -0.23,0 -0.43,-0.08 -0.58,-0.25 -0.15,-0.17 -0.23,-0.36 -0.23,-0.6 z"
     id="path4141"
     style="fill:#ffffff;fill-opacity:1" /></svg>