<?xml version="1.0" encoding="UTF-8" standalone="no"?>
<!-- Generator: Adobe Illustrator 22.0.1, SVG Export Plug-In . SVG Version: 6.00 Build 0)  -->

<svg
   xmlns:dc="http://purl.org/dc/elements/1.1/"
   xmlns:cc="http://creativecommons.org/ns#"
   xmlns:rdf="http://www.w3.org/1999/02/22-rdf-syntax-ns#"
   xmlns:svg="http://www.w3.org/2000/svg"
   xmlns="http://www.w3.org/2000/svg"
   xmlns:sodipodi="http://sodipodi.sourceforge.net/DTD/sodipodi-0.dtd"
   xmlns:inkscape="http://www.inkscape.org/namespaces/inkscape"
   version="1.1"
   id="Layer_1"
   x="0px"
   y="0px"
   viewBox="0 0 30 30"
   style="enable-background:new 0 0 30 30;"
   xml:space="preserve"
   inkscape:version="0.91 r"
   sodipodi:docname="tropicalst.svg"><metadata
     id="metadata9"><rdf:RDF><cc:Work
         rdf:about=""><dc:format>image/svg+xml</dc:format><dc:type
           rdf:resource="http://purl.org/dc/dcmitype/StillImage" /><dc:title></dc:title></cc:Work></rdf:RDF></metadata><defs
     id="defs7"><filter
       id="blur"
       x="-0.16994999"
       y="-0.17863999"
       width="1.3289"
       height="1.455"><feGaussianBlur
         in="SourceAlpha"
         stdDeviation="3"
         id="feGaussianBlur7" /><feOffset
         dx="0"
         dy="4"
         result="offsetblur"
         id="feOffset9" /><feComponentTransfer
         id="feComponentTransfer11"><feFuncA
           slope="0.05"
           type="linear"
           id="feFuncA13" /></feComponentTransfer><feMerge
         id="feMerge15"><feMergeNode
           id="feMergeNode17" /><feMergeNode
           in="SourceGraphic"
           id="feMergeNode19" /></feMerge></filter></defs><sodipodi:namedview
     pagecolor="#ffffff"
     bordercolor="#666666"
     borderopacity="1"
     objecttolerance="10"
     gridtolerance="10"
     guidetolerance="10"
     inkscape:pageopacity="0"
     inkscape:pageshadow="2"
     inkscape:window-width="640"
     inkscape:window-height="480"
     id="namedview5"
     showgrid="false"
     inkscape:zoom="7.8666667"
     inkscape:cx="10.550848"
     inkscape:cy="15"
     inkscape:window-x="0"
     inkscape:window-y="0"
     inkscape:window-maximized="0"
     inkscape:current-layer="Layer_1" /><path
     d="m 8.7276542,14.556121 0,-0.03204 c -0.01602,-0.128158 0,-0.320393 0,-0.592727 0.01602,-0.256315 0.064079,-0.688845 0.1601965,-1.297592 0.096118,-0.608747 0.2242751,-1.217494 0.4004912,-1.84226 0.1762162,-0.624766 0.4485503,-1.3456507 0.8170021,-2.1626529 0.368452,-0.8170022 0.800983,-1.5859454 1.313612,-2.3068297 0.512628,-0.7208843 1.185454,-1.4738079 2.018476,-2.2267315 0.833021,-0.7529236 1.762161,-1.425749 2.771399,-1.9864368 0.256315,-0.1441768 0.512629,-0.1762161 0.784963,-0.096118 0.272334,0.080098 0.48059,0.2402948 0.608747,0.4966092 0.144177,0.2563144 0.176216,0.5126288 0.09612,0.8009826 -0.0801,0.272334 -0.240295,0.4966091 -0.48059,0.6247664 -2.098574,1.1534148 -3.716559,2.7713996 -4.853954,4.8859935 0.865061,-0.4004913 1.730122,-0.6087467 2.611203,-0.6087467 1.714103,0 3.20393,0.6087467 4.437443,1.8422598 1.233514,1.233513 1.84226,2.707321 1.84226,4.421424 0,0.128157 0,0.256314 0,0.384471 0,0.128158 -0.03204,0.400492 -0.06408,0.833022 -0.03204,0.432531 -0.09612,0.833022 -0.176217,1.233513 -0.0801,0.400492 -0.208255,0.897101 -0.368451,1.489828 -0.176217,0.592727 -0.368452,1.169434 -0.608747,1.698083 -0.240295,0.528648 -0.544668,1.121375 -0.92914,1.762162 -0.384472,0.640786 -0.817002,1.233513 -1.297592,1.7942 -0.480589,0.560688 -1.057297,1.121376 -1.730122,1.682064 -0.688845,0.560688 -1.425749,1.073316 -2.226732,1.521867 -0.144176,0.09612 -0.320393,0.128157 -0.496609,0.128157 -0.416511,0 -0.720884,-0.192236 -0.929139,-0.560688 -0.144177,-0.256314 -0.176217,-0.512629 -0.09612,-0.784963 0.0801,-0.272334 0.240294,-0.480589 0.496609,-0.608747 2.146633,-1.201473 3.780637,-2.851497 4.902013,-4.934052 -0.865061,0.416511 -1.778181,0.608747 -2.73936,0.608747 -1.105356,0 -2.146634,-0.272334 -3.107813,-0.833022 C 10.922346,19.345997 10.169423,18.593073 9.5927153,17.631894 9.0320275,16.702754 8.7436738,15.677497 8.7276542,14.556121 Z m 2.7233408,-0.0801 c 0,0.977198 0.352432,1.81022 1.041277,2.515085 0.688845,0.688845 1.521867,1.041277 2.499066,1.041277 0.91312,0 1.698083,-0.304373 2.386928,-0.91312 0.672825,-0.608747 1.057297,-1.36167 1.169434,-2.258771 l 0.01602,-0.368452 c 0,-0.03204 0,-0.06408 0.01602,-0.0801 -0.01602,-0.961179 -0.368452,-1.778181 -1.057297,-2.434987 -0.688845,-0.672825 -1.537887,-0.993218 -2.515086,-0.993218 -0.8971,0 -1.666043,0.288354 -2.338869,0.865061 -0.672825,0.576707 -1.057297,1.313611 -1.169434,2.178673 l -0.03204,0.400491 0,0.04806 z"
     id="path3"
     inkscape:connector-curvature="0"
     style="fill:#ffffff" /><g
     style="filter:url(#blur)"
     id="g27"
     transform="matrix(0.6905687,0,0,0.6905687,16.381907,16.582684)"
     class="warning"><path
       style="fill:#cc0000"
       inkscape:connector-curvature="0"
       id="path29"
       d="M 7.7791,2.906 1.7879,13.023 c -0.56283,0.95042 -0.24862,2.1772 0.7018,2.74 0.30853,0.18271 0.66051,0.27911 1.0191,0.27911 l 11.982,0 c 1.1046,0 2,-0.89543 2,-2 0,-0.35857 -0.0964,-0.71056 -0.27911,-1.0191 l -5.9912,-10.117 c -0.56283,-0.95042 -1.7896,-1.2646 -2.74,-0.7018 -0.28918,0.17125 -0.53055,0.41262 -0.7018,0.7018 z" /><path
       style="stroke:#ffffff;stroke-width:1.5;stroke-linecap:round"
       inkscape:connector-curvature="0"
       id="path31"
       d="m 9.5,10.5 0,-5" /><circle
       style="fill:#ffffff"
       id="circle33"
       r="1"
       cy="13"
       cx="9.5" /></g><path
     style="fill:#ffffff"
     inkscape:connector-curvature="0"
     id="path4161"
     d="m 11.110715,15.368027 -0.0043,-0.0199 c -0.02713,-0.07745 -0.04294,-0.198996 -0.07945,-0.368142 -0.02441,-0.161344 -0.05253,-0.436429 -0.07442,-0.827403 -0.02189,-0.390976 -0.02389,-0.786245 0.0018,-1.197905 0.02571,-0.411661 0.09823,-0.895903 0.217563,-1.452728 0.119337,-0.556824 0.284915,-1.092388 0.506682,-1.6088391 0.221768,-0.5164507 0.538739,-1.0742734 0.955208,-1.6535681 0.416468,-0.5792947 0.903372,-1.121724 1.455055,-1.6052409 0.139873,-0.1239036 0.294774,-0.1781586 0.474656,-0.1649123 0.179881,0.013246 0.330701,0.08483 0.444656,0.2268485 0.123903,0.1398714 0.178158,0.2947734 0.167063,0.4846048 -0.01325,0.1798823 -0.08268,0.3406511 -0.214752,0.4524576 -1.14882,0.9976694 -1.936879,2.2194657 -2.35988,3.6852885 0.483607,-0.364694 0.992981,-0.609991 1.54022,-0.728088 1.064625,-0.229753 2.071548,-0.05135 3.003016,0.549444 0.931469,0.600796 1.507105,1.43458 1.736858,2.499206 0.01718,0.0796 0.03436,0.159197 0.05153,0.238796 0.01718,0.0796 0.03378,0.253039 0.07185,0.525975 0.03807,0.272941 0.05196,0.530273 0.05589,0.789753 0.0039,0.259481 -0.0091,0.585102 -0.02915,0.974715 -0.03,0.391761 -0.07209,0.77572 -0.150487,1.136271 -0.07839,0.360549 -0.187986,0.769489 -0.340892,1.219013 -0.152905,0.449525 -0.342103,0.875641 -0.565444,1.288299 -0.223339,0.412659 -0.506378,0.838202 -0.849116,1.276626 -0.352688,0.440573 -0.741667,0.857737 -1.179033,1.243693 -0.07666,0.07903 -0.181818,0.122541 -0.291265,0.146161 -0.258695,0.05583 -0.473506,-0.02277 -0.652239,-0.223704 -0.123904,-0.139871 -0.17816,-0.294773 -0.164916,-0.474654 0.01325,-0.179883 0.08483,-0.330702 0.226849,-0.444656 1.172227,-1.03396 1.965941,-2.277802 2.383286,-3.721578 -0.48146,0.374643 -1.022831,0.616432 -1.619816,0.745266 -0.686535,0.148157 -1.369773,0.118581 -2.041912,-0.100829 -0.669991,-0.209458 -1.238549,-0.576178 -1.725575,-1.095865 -0.472779,-0.501934 -0.789298,-1.100069 -0.949553,-1.794407 z m 1.680726,-0.414778 c 0.13098,0.606936 0.46153,1.077085 0.983848,1.422545 0.52017,0.335511 1.084797,0.442749 1.691734,0.311769 0.567137,-0.122392 1.013878,-0.41665 1.360125,-0.887073 0.336295,-0.468275 0.474171,-0.987447 0.423575,-1.559665 l -0.03944,-0.230992 c -0.0043,-0.0199 -0.0086,-0.03979 -7.84e-4,-0.0519 -0.138786,-0.594839 -0.467186,-1.055039 -0.983063,-1.370649 -0.518024,-0.32556 -1.088306,-0.410753 -1.695243,-0.279773 -0.557187,0.120244 -0.996125,0.402407 -1.336716,0.850782 -0.340591,0.448375 -0.480614,0.957598 -0.434312,1.509916 l 0.03378,0.25304 0.0065,0.02984 z" /></svg>