<?xml version="1.0" encoding="UTF-8" standalone="no"?>
<!-- Generator: Adobe Illustrator 22.0.1, SVG Export Plug-In . SVG Version: 6.00 Build 0)  -->

<svg
   xmlns:dc="http://purl.org/dc/elements/1.1/"
   xmlns:cc="http://creativecommons.org/ns#"
   xmlns:rdf="http://www.w3.org/1999/02/22-rdf-syntax-ns#"
   xmlns:svg="http://www.w3.org/2000/svg"
   xmlns="http://www.w3.org/2000/svg"
   xmlns:sodipodi="http://sodipodi.sourceforge.net/DTD/sodipodi-0.dtd"
   xmlns:inkscape="http://www.inkscape.org/namespaces/inkscape"
   version="1.1"
   id="Layer_1"
   x="0px"
   y="0px"
   viewBox="0 0 30 30"
   style="enable-background:new 0 0 30 30;"
   xml:space="preserve"
   inkscape:version="0.91 r"
   sodipodi:docname="wind2.svg"><metadata
     id="metadata9"><rdf:RDF><cc:Work
         rdf:about=""><dc:format>image/svg+xml</dc:format><dc:type
           rdf:resource="http://purl.org/dc/dcmitype/StillImage" /><dc:title></dc:title></cc:Work></rdf:RDF></metadata><defs
     id="defs7"><clipPath
       clipPathUnits="userSpaceOnUse"
       id="clipPath4137"><path
         style="fill:none;fill-rule:evenodd;stroke:#000000;stroke-width:1px;stroke-linecap:butt;stroke-linejoin:miter;stroke-opacity:1"
         d="M 47.415254,18.050847 68.389831,17.79661 68.644068,21.864407 67.5,24.915254 c 0,0 -4.067797,0.635593 -4.957627,0.508475 -0.889831,-0.127119 -2.288136,-1.90678 -2.288136,-1.90678 0,0 -8.771186,-1.652542 -9.533898,-1.779661 -0.762712,-0.127119 -4.194915,-1.525424 -4.194915,-1.525424 z"
         id="path4139"
         inkscape:connector-curvature="0" /></clipPath></defs><sodipodi:namedview
     pagecolor="#ffffff"
     bordercolor="#666666"
     borderopacity="1"
     objecttolerance="10"
     gridtolerance="10"
     guidetolerance="10"
     inkscape:pageopacity="0"
     inkscape:pageshadow="2"
     inkscape:window-width="1312"
     inkscape:window-height="568"
     id="namedview5"
     showgrid="false"
     inkscape:zoom="7.8666667"
     inkscape:cx="35.278313"
     inkscape:cy="15"
     inkscape:window-x="0"
     inkscape:window-y="0"
     inkscape:window-maximized="0"
     inkscape:current-layer="Layer_1" /><path
     d="M3.1,16.97c0,0.24,0.09,0.45,0.28,0.62c0.16,0.19,0.37,0.28,0.63,0.28H18.7c0.29,0,0.53,0.1,0.73,0.3  c0.2,0.2,0.3,0.45,0.3,0.74c0,0.29-0.1,0.53-0.3,0.72c-0.2,0.19-0.44,0.29-0.74,0.29c-0.29,0-0.54-0.1-0.73-0.29  c-0.16-0.18-0.36-0.26-0.6-0.26c-0.25,0-0.46,0.09-0.64,0.26s-0.27,0.38-0.27,0.61c0,0.25,0.09,0.46,0.28,0.63  c0.56,0.55,1.22,0.83,1.96,0.83c0.78,0,1.45-0.27,2.01-0.81c0.56-0.54,0.83-1.19,0.83-1.97s-0.28-1.44-0.84-2  c-0.56-0.56-1.23-0.84-2-0.84H4.01c-0.25,0-0.46,0.09-0.64,0.26C3.19,16.51,3.1,16.72,3.1,16.97z M3.1,13.69  c0,0.23,0.09,0.43,0.28,0.61c0.17,0.18,0.38,0.26,0.63,0.26h20.04c0.78,0,1.45-0.27,2.01-0.82c0.56-0.54,0.84-1.2,0.84-1.97  c0-0.77-0.28-1.44-0.84-1.99s-1.23-0.83-2.01-0.83c-0.77,0-1.42,0.27-1.95,0.8c-0.18,0.16-0.27,0.38-0.27,0.67  c0,0.26,0.09,0.47,0.26,0.63c0.17,0.16,0.38,0.24,0.63,0.24c0.24,0,0.45-0.08,0.63-0.24c0.19-0.21,0.42-0.31,0.7-0.31  c0.29,0,0.53,0.1,0.73,0.3c0.2,0.2,0.3,0.44,0.3,0.73c0,0.29-0.1,0.53-0.3,0.72c-0.2,0.19-0.44,0.29-0.73,0.29H4.01  c-0.25,0-0.46,0.09-0.64,0.26C3.19,13.23,3.1,13.44,3.1,13.69z"
     id="path3"
     style="fill:#ffffff" /><path
     style="fill:#ffffff"
     id="path4133"
     d="m 48.862712,19.385254 c 0,0.24 0.09,0.45 0.28,0.62 0.16,0.19 0.37,0.28 0.63,0.28 l 14.69,0 c 0.29,0 0.53,0.1 0.73,0.3 0.2,0.2 0.3,0.45 0.3,0.74 0,0.29 -0.1,0.53 -0.3,0.72 -0.2,0.19 -0.44,0.29 -0.74,0.29 -0.29,0 -0.54,-0.1 -0.73,-0.29 -0.16,-0.18 -0.36,-0.26 -0.6,-0.26 -0.25,0 -0.46,0.09 -0.64,0.26 -0.18,0.17 -0.27,0.38 -0.27,0.61 0,0.25 0.09,0.46 0.28,0.63 0.56,0.55 1.22,0.83 1.96,0.83 0.78,0 1.45,-0.27 2.01,-0.81 0.56,-0.54 0.83,-1.19 0.83,-1.97 0,-0.78 -0.28,-1.44 -0.84,-2 -0.56,-0.56 -1.23,-0.84 -2,-0.84 l -14.68,0 c -0.25,0 -0.46,0.09 -0.64,0.26 -0.18,0.17 -0.27,0.38 -0.27,0.63 z m 0,-3.28 c 0,0.23 0.09,0.43 0.28,0.61 0.17,0.18 0.38,0.26 0.63,0.26 l 20.04,0 c 0.78,0 1.45,-0.27 2.01,-0.82 0.56,-0.54 0.84,-1.2 0.84,-1.97 0,-0.77 -0.28,-1.44 -0.84,-1.99 -0.56,-0.55 -1.23,-0.83 -2.01,-0.83 -0.77,0 -1.42,0.27 -1.95,0.8 -0.18,0.16 -0.27,0.38 -0.27,0.67 0,0.26 0.09,0.47 0.26,0.63 0.17,0.16 0.38,0.24 0.63,0.24 0.24,0 0.45,-0.08 0.63,-0.24 0.19,-0.21 0.42,-0.31 0.7,-0.31 0.29,0 0.53,0.1 0.73,0.3 0.2,0.2 0.3,0.44 0.3,0.73 0,0.29 -0.1,0.53 -0.3,0.72 -0.2,0.19 -0.44,0.29 -0.73,0.29 l -20.04,0 c -0.25,0 -0.46,0.09 -0.64,0.26 -0.18,0.19 -0.27,0.4 -0.27,0.65 z"
     inkscape:connector-curvature="0"
     clip-path="url(#clipPath4137)"
     transform="matrix(1,0,0,-1,-45.762712,29.581356)" /></svg>